<?xml version="1.0" encoding="UTF-8" standalone="no"?>
<svg
   xmlns:dc="http://purl.org/dc/elements/1.1/"
   xmlns:cc="http://creativecommons.org/ns#"
   xmlns:rdf="http://www.w3.org/1999/02/22-rdf-syntax-ns#"
   xmlns:svg="http://www.w3.org/2000/svg"
   xmlns="http://www.w3.org/2000/svg"
   viewBox="0 0 666.66669 666.66669"
   height="666.66669"
   width="666.66669"
   xml:space="preserve"
   id="svg2"
   version="1.1"><metadata
     id="metadata8"><rdf:RDF><cc:Work
         rdf:about=""><dc:format>image/svg+xml</dc:format><dc:type
           rdf:resource="http://purl.org/dc/dcmitype/StillImage" /></cc:Work></rdf:RDF></metadata><defs
     id="defs6"><clipPath
       id="clipPath18"
       clipPathUnits="userSpaceOnUse"><path
         id="path16"
         d="M 0,500 H 500 V 0 H 0 Z" /></clipPath><clipPath
       id="clipPath30"
       clipPathUnits="userSpaceOnUse"><path
         id="path28"
         d="M 26.5521,484.66 H 467.63 V 99.9641 H 26.5521 Z" /></clipPath><clipPath
       id="clipPath46"
       clipPathUnits="userSpaceOnUse"><path
         id="path44"
         d="M 0,500 H 500 V 0 H 0 Z" /></clipPath><clipPath
       id="clipPath90"
       clipPathUnits="userSpaceOnUse"><path
         id="path88"
         d="M 0,500 H 500 V 0 H 0 Z" /></clipPath><clipPath
       id="clipPath122"
       clipPathUnits="userSpaceOnUse"><path
         id="path120"
         d="M 0,500 H 500 V 0 H 0 Z" /></clipPath><clipPath
       id="clipPath294"
       clipPathUnits="userSpaceOnUse"><path
         id="path292"
         d="M 0,500 H 500 V 0 H 0 Z" /></clipPath><clipPath
       id="clipPath366"
       clipPathUnits="userSpaceOnUse"><path
         id="path364"
         d="M 0,500 H 500 V 0 H 0 Z" /></clipPath></defs><g
     transform="matrix(1.3333333,0,0,-1.3333333,0,666.66667)"
     id="g10"><g
       id="g12"><g
         clip-path="url(#clipPath18)"
         id="g14"><g
           transform="translate(324.1807,476.6426)"
           id="g20"><path
             id="path22"
             style="fill:#5ae4a7;fill-opacity:1;fill-rule:nonzero;stroke:none"
             d="m 0,0 c 0,0 -72.735,25.863 -144.133,-15.313 -71.398,-41.176 -107.423,-122.915 -138.36,-188.392 -30.936,-65.477 -13.129,-132.077 41.374,-162.445 54.502,-30.369 91.563,14.398 168.021,16.578 76.46,2.179 97.023,-8.751 160.469,34.441 63.445,43.193 74.914,145.2 24.865,220.677 C 62.188,-18.977 0,0 0,0" /></g><g
           id="g24"><g
             id="g26" /><g
             id="g38"><g
               style="opacity:0.69999701"
               id="g36"
               clip-path="url(#clipPath30)"><g
                 id="g34"
                 transform="translate(324.1807,476.6426)"><path
                   id="path32"
                   style="fill:#ffffff;fill-opacity:1;fill-rule:nonzero;stroke:none"
                   d="m 0,0 c 0,0 -72.735,25.863 -144.133,-15.313 -71.398,-41.176 -107.423,-122.915 -138.36,-188.392 -30.936,-65.477 -13.129,-132.077 41.374,-162.445 54.502,-30.369 91.563,14.398 168.021,16.578 76.46,2.179 97.023,-8.751 160.469,34.441 63.445,43.193 74.914,145.2 24.865,220.677 C 62.188,-18.977 0,0 0,0" /></g></g></g></g></g></g><g
       id="g40"><g
         clip-path="url(#clipPath46)"
         id="g42"><g
           transform="translate(454.3574,101.8359)"
           id="g48"><path
             id="path50"
             style="fill:#5ae4a7;fill-opacity:1;fill-rule:nonzero;stroke:none"
             d="m 0,0 c -4.006,0.577 -11.609,5.532 -11.615,5.535 -0.078,0.052 4.787,4.021 5.122,4.236 3.887,2.49 12.859,5.016 16.847,1.729 C 13.229,9.132 13.026,4.912 10.487,2.398 7.895,-0.169 3.412,-0.491 0,0" /></g><g
           transform="translate(379.7666,140.2285)"
           id="g52"><path
             id="path54"
             style="fill:#5ae4a7;fill-opacity:1;fill-rule:nonzero;stroke:none"
             d="m 0,0 c -0.094,-0.001 1.775,5.993 1.937,6.358 1.867,4.221 7.958,11.278 13.097,10.736 3.703,-0.39 5.862,-4.021 5.132,-7.517 C 19.42,6.005 15.858,3.264 12.741,1.79 9.082,0.062 0.007,0 0,0" /></g><g
           transform="translate(372.2988,40.1729)"
           id="g56"><path
             id="path58"
             style="fill:#5ae4a7;fill-opacity:1;fill-rule:nonzero;stroke:none"
             d="m 0,0 c -1.769,-2.198 -3.375,-4.269 -4.818,-6.173 h -3.643 c 1.833,2.35 3.967,5.01 6.38,7.881 1.402,1.677 2.935,3.44 4.524,5.236 -0.363,0.441 -2.416,2.959 -4.036,5.552 -3.25,-1.086 -9.89,-0.798 -10.748,-0.755 -0.249,-2.137 -0.472,-4.22 -0.65,-6.187 -0.414,-4.448 -0.67,-8.399 -0.836,-11.727 h -2.956 c 0.242,3.397 0.591,7.444 1.115,12.004 0.244,2.172 0.549,4.487 0.885,6.862 -0.835,0.255 -7.647,2.379 -10.147,4.594 -2.267,2.009 -4.598,5.198 -4.35,8.396 0.243,3.129 2.958,5.663 6.178,5.081 4.47,-0.807 7.874,-8.259 8.413,-12.28 0.031,-0.237 0.088,-2.848 0.097,-4.497 0.142,0.97 0.269,1.913 0.428,2.909 0.3,1.972 0.657,3.932 1.035,6.042 0.218,1.013 0.438,2.036 0.66,3.068 0.198,1.029 0.539,2.091 0.807,3.147 0.672,2.437 1.471,4.873 2.33,7.311 -1.728,0.266 -7.845,1.304 -10.402,2.953 -2.546,1.642 -5.333,4.441 -5.573,7.639 -0.233,3.132 2.067,6.046 5.338,5.96 4.541,-0.121 9.034,-6.971 10.176,-10.865 0.07,-0.242 0.575,-3.127 0.822,-4.717 0.528,1.461 1.047,2.921 1.63,4.381 1.68,4.217 3.512,8.432 5.32,12.646 0.555,1.29 1.091,2.582 1.634,3.874 -0.615,0.089 -7.914,1.164 -10.778,3.012 -2.546,1.641 -5.333,4.441 -5.572,7.638 -0.234,3.132 2.066,6.046 5.338,5.959 4.541,-0.12 9.034,-6.97 10.174,-10.863 0.086,-0.293 0.807,-4.445 0.939,-5.511 1.193,2.846 2.357,5.693 3.39,8.544 1.431,3.935 2.618,7.873 3.485,11.775 -0.286,0.04 -7.909,1.128 -10.843,3.02 -2.547,1.642 -5.334,4.442 -5.572,7.64 -0.235,3.131 2.065,6.046 5.337,5.959 4.542,-0.12 9.034,-6.971 10.176,-10.863 0.075,-0.256 0.625,-3.418 0.853,-4.929 0.144,-0.003 0.117,-0.003 0.26,-0.006 0.879,4.189 1.202,8.359 1.312,12.276 0.069,2.27 0.008,4.443 -0.1,6.555 -1.441,0.058 -8.021,0.391 -10.849,1.802 -2.712,1.352 -5.789,3.829 -6.378,6.98 -0.576,3.087 1.39,6.238 4.652,6.51 4.526,0.38 9.744,-5.937 11.305,-9.68 0.085,-0.203 0.72,-2.369 1.159,-3.952 -0.063,0.952 -0.11,1.937 -0.189,2.849 -0.286,3.423 -0.759,6.54 -1.2,9.297 -0.265,1.566 -0.533,2.976 -0.8,4.294 -1.385,0.793 -6.923,4.06 -8.75,6.57 -1.782,2.449 -3.373,6.065 -2.442,9.135 0.91,3.005 4.107,4.894 7.126,3.633 4.193,-1.75 5.914,-9.758 5.575,-13.801 -0.031,-0.35 -1.116,-5.76 -1.189,-5.719 0,0 -0.067,0.038 -0.084,0.048 0.282,-1.263 0.569,-2.619 0.853,-4.108 0.503,-2.753 1.045,-5.869 1.407,-9.298 C 8.579,99.674 8.885,95.939 8.853,91.978 8.825,88.007 8.594,83.83 7.799,79.559 7.79,79.51 7.774,79.461 7.766,79.413 c 0.62,1.177 2.465,4.41 2.635,4.643 2.395,3.273 8.947,8.192 13.259,6.764 3.107,-1.029 4.28,-4.551 2.997,-7.418 C 25.348,80.476 21.775,78.788 18.823,78.108 15.493,77.342 8.232,78.817 7.655,78.938 6.861,74.876 5.716,70.772 4.329,66.684 3.538,64.345 2.669,62.015 1.768,59.688 c 0.569,1.001 1.086,1.891 1.171,2.008 2.395,3.274 8.947,8.192 13.259,6.764 3.107,-1.029 4.281,-4.552 2.997,-7.417 -1.309,-2.928 -4.882,-4.614 -7.834,-5.294 -2.996,-0.69 -9.211,0.443 -10.851,0.766 -0.356,-0.889 -0.7,-1.78 -1.059,-2.667 -1.719,-4.257 -3.452,-8.498 -5.025,-12.71 -0.556,-1.485 -1.047,-2.966 -1.545,-4.447 0.507,0.888 0.94,1.632 1.018,1.739 2.395,3.274 8.947,8.192 13.259,6.763 3.107,-1.029 4.28,-4.551 2.997,-7.418 C 8.846,34.85 5.273,33.162 2.32,32.482 c -2.858,-0.658 -8.604,0.337 -10.555,0.71 -0.464,-1.532 -0.932,-3.065 -1.313,-4.57 -0.236,-1.034 -0.536,-2.013 -0.716,-3.064 -0.2,-1.037 -0.398,-2.065 -0.593,-3.081 -0.306,-1.973 -0.634,-4.006 -0.883,-5.938 -0.185,-1.342 -0.335,-2.624 -0.49,-3.916 0.535,1.483 1.644,4.366 1.764,4.597 1.243,2.391 4.193,5.768 7.344,7.55 0.182,0.354 0.393,0.69 0.639,1.005 1.929,2.477 5.591,3.091 7.957,0.829 C 8.757,23.466 7.485,15.373 5.716,11.723 5.611,11.507 4.218,9.298 3.315,7.918 c 0.655,0.73 1.281,1.447 1.962,2.19 1.339,1.48 2.719,2.916 4.198,4.469 0.74,0.724 1.488,1.455 2.243,2.194 0.733,0.749 1.602,1.446 2.408,2.18 1.905,1.661 3.915,3.253 5.977,4.812 -1.293,1.175 -5.824,5.415 -7.047,8.202 -1.218,2.773 -1.998,6.646 -0.433,9.445 1.532,2.74 5.058,3.903 7.739,2.026 3.721,-2.606 3.69,-10.798 2.493,-14.674 -0.074,-0.242 -1.245,-2.927 -1.917,-4.389 1.248,0.927 2.487,1.858 3.778,2.756 3.727,2.59 7.58,5.095 11.413,7.611 1.175,0.771 2.335,1.552 3.501,2.33 -0.465,0.413 -5.959,5.337 -7.329,8.458 -1.218,2.774 -1.998,6.646 -0.434,9.446 1.533,2.74 5.059,3.902 7.74,2.025 3.721,-2.605 3.69,-10.798 2.495,-14.674 -0.091,-0.292 -1.782,-4.153 -2.259,-5.113 2.565,1.714 5.106,3.445 7.542,5.255 3.363,2.492 6.526,5.122 9.401,7.898 -0.217,0.192 -5.973,5.304 -7.378,8.501 -1.218,2.775 -1.998,6.647 -0.432,9.446 1.532,2.741 5.058,3.903 7.739,2.026 3.722,-2.607 3.689,-10.798 2.494,-14.674 -0.079,-0.255 -1.364,-3.199 -2.008,-4.584 0.117,-0.082 0.096,-0.066 0.212,-0.148 3.046,3.01 5.616,6.31 7.87,9.517 1.309,1.855 2.456,3.701 3.531,5.523 -1.169,0.841 -6.473,4.75 -8.054,7.487 -1.515,2.624 -2.716,6.388 -1.468,9.341 1.222,2.892 4.6,4.435 7.47,2.864 3.984,-2.182 4.852,-10.328 4.091,-14.311 -0.042,-0.217 -0.708,-2.373 -1.214,-3.936 0.472,0.829 0.975,1.676 1.413,2.48 1.65,3.013 2.974,5.874 4.128,8.417 0.643,1.452 1.196,2.777 1.702,4.022 -0.718,1.426 -3.534,7.206 -3.674,10.308 -0.136,3.026 0.533,6.919 3.002,8.966 2.418,2.003 6.125,1.817 7.949,-0.901 2.531,-3.772 -0.452,-11.401 -2.965,-14.586 -0.217,-0.275 -4.107,-4.189 -4.146,-4.115 0,0 -0.035,0.069 -0.043,0.086 -0.462,-1.208 -0.971,-2.498 -1.556,-3.896 -1.099,-2.573 -2.365,-5.471 -3.956,-8.532 -1.581,-3.062 -3.386,-6.346 -5.597,-9.633 -2.214,-3.297 -4.711,-6.652 -7.731,-9.777 -0.034,-0.035 -0.074,-0.068 -0.108,-0.103 1.167,0.64 4.49,2.319 4.759,2.419 3.804,1.409 11.982,1.897 14.79,-1.673 2.024,-2.573 1.06,-6.158 -1.591,-7.84 -2.707,-1.718 -6.618,-1.155 -9.455,-0.093 -3.201,1.196 -8.442,6.433 -8.858,6.851 -2.902,-2.95 -6.121,-5.74 -9.534,-8.384 -1.949,-1.515 -3.96,-2.98 -5.995,-4.423 1.027,0.52 1.949,0.978 2.085,1.029 3.804,1.409 11.981,1.897 14.79,-1.673 2.024,-2.573 1.059,-6.158 -1.592,-7.841 -2.707,-1.718 -6.617,-1.154 -9.455,-0.092 -2.879,1.077 -7.438,5.451 -8.628,6.625 -0.787,-0.545 -1.565,-1.099 -2.354,-1.641 -3.783,-2.603 -7.568,-5.184 -11.204,-7.829 -1.281,-0.932 -2.508,-1.896 -3.742,-2.857 0.913,0.461 1.686,0.843 1.81,0.889 3.804,1.409 11.981,1.898 14.79,-1.673 2.023,-2.573 1.058,-6.158 -1.593,-7.841 -2.707,-1.717 -6.617,-1.154 -9.454,-0.092 -2.748,1.027 -6.992,5.027 -8.413,6.416 C 17.981,19.407 16.745,18.387 15.598,17.341 14.829,16.609 14.039,15.958 13.31,15.181 12.57,14.425 11.839,13.678 11.114,12.938 9.771,11.461 8.376,9.946 7.103,8.473 6.208,7.455 5.375,6.468 4.533,5.477 c 1.265,0.942 3.78,2.735 4.008,2.86 3.546,1.97 11.555,3.691 14.873,0.587 2.389,-2.237 1.98,-5.926 -0.386,-7.99 C 20.611,-1.175 16.662,-1.21 13.696,-0.591 10.431,0.091 4.671,4.274 3.955,4.802 2.567,3.157 1.233,1.543 0,0" /></g><g
           transform="translate(328.3574,101.8359)"
           id="g60"><path
             id="path62"
             style="fill:#5ae4a7;fill-opacity:1;fill-rule:nonzero;stroke:none"
             d="m 0,0 c -4.006,0.577 -11.609,5.532 -11.615,5.535 -0.078,0.052 4.787,4.021 5.122,4.236 3.887,2.49 12.859,5.016 16.847,1.729 C 13.229,9.132 13.026,4.912 10.487,2.398 7.895,-0.169 3.412,-0.491 0,0" /></g><g
           transform="translate(253.7666,140.2285)"
           id="g64"><path
             id="path66"
             style="fill:#5ae4a7;fill-opacity:1;fill-rule:nonzero;stroke:none"
             d="m 0,0 c -0.094,-0.001 1.775,5.993 1.937,6.358 1.867,4.221 7.958,11.278 13.097,10.736 3.703,-0.39 5.862,-4.021 5.132,-7.517 C 19.42,6.005 15.858,3.264 12.741,1.79 9.082,0.062 0.007,0 0,0" /></g><g
           transform="translate(246.2983,40.1729)"
           id="g68"><path
             id="path70"
             style="fill:#5ae4a7;fill-opacity:1;fill-rule:nonzero;stroke:none"
             d="M 0,0 C -1.768,-2.198 -3.375,-4.269 -4.818,-6.173 H -8.46 c 1.832,2.35 3.966,5.01 6.379,7.881 1.403,1.677 2.935,3.44 4.524,5.236 -0.363,0.441 -2.416,2.959 -4.036,5.552 -3.25,-1.086 -9.89,-0.798 -10.747,-0.755 -0.249,-2.137 -0.472,-4.22 -0.65,-6.187 -0.414,-4.448 -0.67,-8.399 -0.837,-11.727 h -2.956 c 0.242,3.397 0.591,7.444 1.116,12.004 0.244,2.172 0.548,4.487 0.884,6.862 -0.835,0.255 -7.646,2.379 -10.147,4.594 -2.267,2.009 -4.598,5.198 -4.35,8.396 0.243,3.129 2.958,5.663 6.179,5.081 4.47,-0.807 7.873,-8.259 8.412,-12.28 0.032,-0.237 0.088,-2.848 0.097,-4.497 0.142,0.97 0.269,1.913 0.428,2.909 0.3,1.972 0.658,3.932 1.035,6.042 0.218,1.013 0.438,2.036 0.661,3.068 0.198,1.029 0.539,2.091 0.806,3.147 0.672,2.437 1.471,4.873 2.33,7.311 -1.727,0.266 -7.844,1.304 -10.402,2.953 -2.546,1.642 -5.333,4.441 -5.572,7.639 -0.234,3.132 2.066,6.046 5.338,5.96 4.541,-0.121 9.034,-6.971 10.175,-10.865 0.071,-0.242 0.576,-3.127 0.823,-4.717 0.527,1.461 1.047,2.921 1.63,4.381 1.679,4.217 3.511,8.432 5.319,12.646 0.556,1.29 1.092,2.582 1.635,3.874 -0.615,0.089 -7.914,1.164 -10.779,3.012 -2.546,1.641 -5.333,4.441 -5.571,7.638 -0.234,3.132 2.066,6.046 5.337,5.959 4.541,-0.12 9.034,-6.97 10.175,-10.863 0.086,-0.293 0.807,-4.445 0.938,-5.511 1.194,2.846 2.358,5.693 3.391,8.544 1.431,3.935 2.617,7.873 3.484,11.775 -0.286,0.04 -7.909,1.128 -10.842,3.02 -2.547,1.642 -5.334,4.442 -5.573,7.64 -0.234,3.131 2.066,6.046 5.338,5.959 4.541,-0.12 9.034,-6.971 10.175,-10.863 0.075,-0.256 0.626,-3.418 0.854,-4.929 0.143,-0.003 0.117,-0.003 0.259,-0.006 0.879,4.189 1.202,8.359 1.313,12.276 0.068,2.27 0.008,4.443 -0.101,6.555 -1.44,0.058 -8.02,0.391 -10.849,1.802 -2.711,1.352 -5.789,3.829 -6.377,6.98 -0.577,3.087 1.389,6.238 4.651,6.51 4.526,0.38 9.744,-5.937 11.306,-9.68 0.085,-0.203 0.719,-2.369 1.159,-3.952 -0.064,0.952 -0.11,1.937 -0.19,2.849 -0.286,3.423 -0.758,6.54 -1.2,9.297 -0.264,1.566 -0.533,2.976 -0.8,4.294 -1.384,0.793 -6.922,4.06 -8.75,6.57 -1.782,2.449 -3.373,6.065 -2.442,9.135 0.911,3.005 4.107,4.894 7.127,3.633 4.192,-1.75 5.913,-9.758 5.574,-13.801 -0.03,-0.35 -1.115,-5.76 -1.188,-5.719 0,0 -0.068,0.038 -0.084,0.048 0.282,-1.263 0.568,-2.619 0.852,-4.108 0.503,-2.753 1.045,-5.869 1.407,-9.298 C 8.58,99.674 8.885,95.939 8.853,91.978 8.826,88.007 8.594,83.83 7.799,79.559 7.791,79.51 7.775,79.461 7.766,79.413 c 0.62,1.177 2.466,4.41 2.636,4.643 2.394,3.273 8.946,8.192 13.259,6.764 3.106,-1.029 4.28,-4.551 2.997,-7.418 -1.31,-2.926 -4.882,-4.614 -7.834,-5.294 -3.33,-0.766 -10.591,0.709 -11.168,0.83 -0.794,-4.062 -1.94,-8.166 -3.327,-12.254 -0.79,-2.339 -1.66,-4.669 -2.56,-6.996 0.569,1.001 1.085,1.891 1.171,2.008 2.394,3.274 8.946,8.192 13.259,6.764 3.106,-1.029 4.28,-4.552 2.997,-7.417 -1.31,-2.928 -4.882,-4.614 -7.834,-5.294 -2.996,-0.69 -9.212,0.443 -10.852,0.766 -0.355,-0.889 -0.7,-1.78 -1.058,-2.667 -1.719,-4.257 -3.453,-8.498 -5.026,-12.71 -0.555,-1.485 -1.047,-2.966 -1.545,-4.447 0.507,0.888 0.941,1.632 1.018,1.739 2.395,3.274 8.947,8.192 13.26,6.763 3.106,-1.029 4.28,-4.551 2.997,-7.418 -1.31,-2.925 -4.882,-4.613 -7.835,-5.293 -2.859,-0.658 -8.605,0.337 -10.556,0.71 -0.464,-1.532 -0.932,-3.065 -1.312,-4.57 -0.236,-1.034 -0.536,-2.013 -0.716,-3.064 -0.2,-1.037 -0.398,-2.065 -0.594,-3.081 -0.306,-1.973 -0.633,-4.006 -0.883,-5.938 -0.184,-1.342 -0.334,-2.624 -0.49,-3.916 0.535,1.483 1.645,4.366 1.764,4.597 1.244,2.391 4.193,5.768 7.345,7.55 0.182,0.354 0.393,0.69 0.638,1.005 1.93,2.477 5.592,3.091 7.957,0.829 C 8.757,23.466 7.486,15.373 5.716,11.723 5.612,11.507 4.218,9.298 3.316,7.918 c 0.654,0.73 1.28,1.447 1.962,2.19 1.339,1.48 2.719,2.916 4.197,4.469 0.74,0.724 1.488,1.455 2.243,2.194 0.734,0.749 1.603,1.446 2.408,2.18 1.906,1.661 3.916,3.253 5.977,4.812 -1.293,1.175 -5.823,5.415 -7.047,8.202 -1.218,2.773 -1.998,6.646 -0.432,9.445 1.532,2.74 5.057,3.903 7.739,2.026 3.72,-2.606 3.689,-10.798 2.493,-14.674 -0.074,-0.242 -1.245,-2.927 -1.917,-4.389 1.247,0.927 2.486,1.858 3.777,2.756 3.728,2.59 7.58,5.095 11.413,7.611 1.175,0.771 2.335,1.552 3.501,2.33 -0.464,0.413 -5.959,5.337 -7.329,8.458 -1.218,2.774 -1.998,6.646 -0.433,9.446 1.533,2.74 5.058,3.902 7.74,2.025 3.721,-2.605 3.689,-10.798 2.494,-14.674 -0.091,-0.292 -1.781,-4.153 -2.259,-5.113 2.566,1.714 5.107,3.445 7.542,5.255 3.364,2.492 6.527,5.122 9.402,7.898 -0.217,0.192 -5.974,5.304 -7.378,8.501 -1.218,2.775 -1.998,6.647 -0.433,9.446 1.532,2.741 5.059,3.903 7.739,2.026 3.722,-2.607 3.69,-10.798 2.494,-14.674 -0.079,-0.255 -1.364,-3.199 -2.007,-4.584 0.117,-0.082 0.095,-0.066 0.212,-0.148 3.045,3.01 5.616,6.31 7.87,9.517 1.308,1.855 2.456,3.701 3.531,5.523 -1.17,0.841 -6.474,4.75 -8.055,7.487 -1.514,2.624 -2.716,6.388 -1.468,9.341 1.222,2.892 4.6,4.435 7.47,2.864 3.985,-2.182 4.853,-10.328 4.091,-14.311 -0.042,-0.217 -0.708,-2.373 -1.214,-3.936 0.473,0.829 0.976,1.676 1.413,2.48 1.651,3.013 2.975,5.874 4.128,8.417 0.644,1.452 1.196,2.777 1.702,4.022 -0.717,1.426 -3.534,7.206 -3.674,10.308 -0.135,3.026 0.534,6.919 3.002,8.966 2.418,2.003 6.125,1.817 7.95,-0.901 2.531,-3.772 -0.452,-11.401 -2.965,-14.586 -0.218,-0.275 -4.108,-4.189 -4.147,-4.115 0,0 -0.035,0.069 -0.043,0.086 -0.462,-1.208 -0.97,-2.498 -1.555,-3.896 -1.1,-2.573 -2.366,-5.471 -3.956,-8.532 -1.581,-3.062 -3.386,-6.346 -5.598,-9.633 -2.214,-3.297 -4.711,-6.652 -7.73,-9.777 -0.035,-0.035 -0.075,-0.068 -0.109,-0.103 1.167,0.64 4.49,2.319 4.76,2.419 3.804,1.409 11.981,1.897 14.79,-1.673 2.023,-2.573 1.06,-6.158 -1.592,-7.84 -2.707,-1.718 -6.617,-1.155 -9.455,-0.093 -3.2,1.196 -8.441,6.433 -8.857,6.851 -2.903,-2.95 -6.121,-5.74 -9.535,-8.384 -1.949,-1.515 -3.96,-2.98 -5.995,-4.423 1.028,0.52 1.95,0.978 2.085,1.029 3.804,1.409 11.982,1.897 14.79,-1.673 2.025,-2.573 1.06,-6.158 -1.591,-7.841 -2.707,-1.718 -6.618,-1.154 -9.456,-0.092 -2.878,1.077 -7.437,5.451 -8.627,6.625 -0.788,-0.545 -1.566,-1.099 -2.355,-1.641 -3.782,-2.603 -7.567,-5.184 -11.203,-7.829 -1.281,-0.932 -2.509,-1.896 -3.742,-2.857 0.913,0.461 1.685,0.843 1.809,0.889 3.804,1.409 11.982,1.898 14.79,-1.673 2.024,-2.573 1.059,-6.158 -1.592,-7.841 -2.707,-1.717 -6.618,-1.154 -9.455,-0.092 -2.748,1.027 -6.992,5.027 -8.413,6.416 C 17.982,19.407 16.746,18.387 15.598,17.341 14.83,16.609 14.04,15.958 13.31,15.181 12.571,14.425 11.839,13.678 11.115,12.938 9.772,11.461 8.376,9.946 7.103,8.473 6.208,7.455 5.375,6.468 4.534,5.477 c 1.264,0.942 3.78,2.735 4.008,2.86 3.545,1.97 11.554,3.691 14.873,0.587 C 25.803,6.687 25.394,2.998 23.029,0.934 20.612,-1.175 16.663,-1.21 13.697,-0.591 10.431,0.091 4.671,4.274 3.956,4.802 2.568,3.157 1.234,1.543 0,0" /></g><g
           transform="translate(48.335,94.2705)"
           id="g72"><path
             id="path74"
             style="fill:#5ae4a7;fill-opacity:1;fill-rule:nonzero;stroke:none"
             d="M 0,0 C 3.559,0.513 10.314,4.915 10.319,4.918 10.389,4.964 6.066,8.489 5.768,8.682 2.315,10.893 -5.656,13.138 -9.201,10.218 -11.753,8.113 -11.574,4.364 -9.318,2.131 -7.015,-0.15 -3.032,-0.437 0,0" /></g><g
           transform="translate(114.606,128.3809)"
           id="g76"><path
             id="path78"
             style="fill:#5ae4a7;fill-opacity:1;fill-rule:nonzero;stroke:none"
             d="m 0,0 c 0.083,0 -1.577,5.325 -1.72,5.649 -1.66,3.75 -7.071,10.02 -11.637,9.539 -3.29,-0.347 -5.209,-3.573 -4.56,-6.679 0.664,-3.174 3.828,-5.61 6.597,-6.918 C -8.069,0.056 -0.006,0 0,0" /></g><g
           transform="translate(121.2417,39.4844)"
           id="g80"><path
             id="path82"
             style="fill:#5ae4a7;fill-opacity:1;fill-rule:nonzero;stroke:none"
             d="m 0,0 c 1.57,-1.953 2.999,-3.792 4.281,-5.484 h 3.236 c -1.629,2.088 -3.525,4.451 -5.669,7.002 -1.245,1.49 -2.607,3.056 -4.019,4.652 0.322,0.392 2.147,2.629 3.586,4.933 2.888,-0.965 8.787,-0.709 9.548,-0.671 0.222,-1.9 0.42,-3.749 0.579,-5.497 0.367,-3.953 0.595,-7.462 0.742,-10.419 h 2.627 c -0.215,3.017 -0.525,6.614 -0.991,10.665 -0.217,1.929 -0.488,3.987 -0.786,6.097 0.742,0.227 6.793,2.114 9.015,4.081 2.015,1.785 4.086,4.619 3.865,7.459 -0.216,2.782 -2.628,5.032 -5.49,4.515 -3.971,-0.717 -6.995,-7.338 -7.473,-10.91 -0.029,-0.211 -0.079,-2.531 -0.087,-3.995 -0.126,0.861 -0.239,1.699 -0.38,2.584 -0.267,1.753 -0.584,3.494 -0.919,5.368 -0.194,0.899 -0.39,1.808 -0.588,2.725 -0.176,0.915 -0.478,1.858 -0.716,2.797 -0.597,2.164 -1.306,4.329 -2.07,6.494 1.534,0.238 6.97,1.16 9.242,2.625 2.262,1.458 4.738,3.946 4.95,6.787 0.208,2.782 -1.835,5.372 -4.742,5.295 C 13.707,46.996 9.714,40.909 8.701,37.451 8.637,37.235 8.189,34.672 7.97,33.259 7.501,34.557 7.039,35.854 6.521,37.152 5.029,40.898 3.402,44.644 1.795,48.387 c -0.493,1.146 -0.97,2.295 -1.452,3.442 0.546,0.078 7.031,1.034 9.576,2.676 2.263,1.458 4.739,3.945 4.951,6.787 0.207,2.781 -1.836,5.371 -4.743,5.294 C 6.093,66.479 2.101,60.393 1.087,56.935 1.011,56.674 0.371,52.984 0.254,52.038 c -1.061,2.528 -2.095,5.058 -3.013,7.591 -1.271,3.496 -2.325,6.995 -3.096,10.461 0.255,0.036 7.027,1.003 9.634,2.684 2.263,1.458 4.739,3.946 4.951,6.788 0.208,2.781 -1.835,5.371 -4.742,5.293 -4.035,-0.106 -8.027,-6.192 -9.041,-9.651 -0.066,-0.226 -0.556,-3.036 -0.759,-4.379 -0.126,-0.003 -0.103,-0.002 -0.23,-0.006 -0.781,3.723 -1.068,7.428 -1.166,10.909 -0.061,2.016 -0.007,3.946 0.089,5.823 1.28,0.051 7.126,0.347 9.639,1.601 2.409,1.202 5.144,3.402 5.667,6.202 0.511,2.743 -1.235,5.542 -4.133,5.784 -4.022,0.337 -8.658,-5.275 -10.045,-8.601 -0.075,-0.181 -0.639,-2.104 -1.03,-3.512 0.057,0.847 0.099,1.722 0.168,2.532 0.254,3.041 0.675,5.81 1.067,8.26 0.235,1.391 0.474,2.644 0.71,3.815 1.23,0.705 6.151,3.608 7.775,5.838 1.583,2.176 2.996,5.388 2.17,8.115 -0.809,2.67 -3.649,4.349 -6.332,3.229 -3.725,-1.554 -5.254,-8.67 -4.953,-12.262 0.027,-0.311 0.991,-5.117 1.056,-5.081 0,0 0.06,0.034 0.074,0.042 -0.25,-1.121 -0.505,-2.327 -0.757,-3.65 -0.447,-2.446 -0.929,-5.214 -1.25,-8.261 -0.33,-3.045 -0.602,-6.363 -0.573,-9.882 0.025,-3.529 0.23,-7.24 0.936,-11.034 0.008,-0.043 0.022,-0.087 0.03,-0.13 -0.552,1.046 -2.19,3.919 -2.342,4.125 -2.127,2.909 -7.948,7.279 -11.78,6.01 -2.76,-0.915 -3.803,-4.045 -2.663,-6.59 1.164,-2.601 4.338,-4.1 6.961,-4.704 2.958,-0.681 9.409,0.63 9.922,0.737 0.706,-3.609 1.723,-7.255 2.955,-10.888 0.703,-2.077 1.475,-4.148 2.276,-6.215 -0.506,0.89 -0.965,1.68 -1.041,1.784 -2.128,2.909 -7.949,7.279 -11.78,6.01 -2.76,-0.915 -3.803,-4.044 -2.663,-6.591 1.163,-2.6 4.337,-4.098 6.961,-4.703 2.661,-0.613 8.183,0.395 9.641,0.681 0.315,-0.79 0.621,-1.581 0.94,-2.369 1.527,-3.783 3.068,-7.551 4.465,-11.293 0.493,-1.319 0.93,-2.636 1.373,-3.951 -0.45,0.789 -0.836,1.45 -0.905,1.545 -2.128,2.909 -7.949,7.278 -11.78,6.008 -2.761,-0.914 -3.804,-4.043 -2.663,-6.589 1.164,-2.6 4.337,-4.099 6.96,-4.704 2.541,-0.585 7.646,0.3 9.38,0.631 0.412,-1.36 0.827,-2.722 1.165,-4.06 0.21,-0.919 0.476,-1.788 0.636,-2.723 0.178,-0.922 0.354,-1.834 0.528,-2.737 0.271,-1.753 0.562,-3.559 0.785,-5.276 0.163,-1.192 0.297,-2.331 0.435,-3.478 -0.475,1.317 -1.461,3.879 -1.568,4.083 -1.105,2.125 -3.724,5.126 -6.525,6.708 -0.161,0.314 -0.35,0.614 -0.567,0.893 -1.715,2.201 -4.968,2.747 -7.07,0.738 -2.917,-2.789 -1.787,-9.98 -0.215,-13.223 0.093,-0.191 1.331,-2.154 2.132,-3.38 -0.58,0.649 -1.136,1.285 -1.743,1.945 -1.189,1.315 -2.414,2.592 -3.728,3.971 -0.658,0.644 -1.323,1.293 -1.994,1.949 -0.651,0.665 -1.424,1.285 -2.139,1.938 -1.693,1.475 -3.479,2.89 -5.31,4.274 1.149,1.045 5.174,4.812 6.261,7.288 1.081,2.464 1.775,5.905 0.384,8.392 -1.361,2.435 -4.493,3.468 -6.876,1.8 -3.306,-2.316 -3.278,-9.594 -2.215,-13.038 0.066,-0.215 1.106,-2.6 1.703,-3.9 -1.108,0.825 -2.208,1.653 -3.356,2.45 -3.311,2.3 -6.735,4.526 -10.14,6.762 -1.044,0.684 -2.075,1.378 -3.111,2.07 0.413,0.367 5.295,4.741 6.512,7.514 1.082,2.465 1.775,5.905 0.385,8.393 -1.362,2.434 -4.495,3.467 -6.876,1.799 -3.307,-2.315 -3.278,-9.594 -2.216,-13.038 0.08,-0.258 1.581,-3.689 2.006,-4.542 -2.279,1.523 -4.537,3.061 -6.701,4.668 -2.988,2.214 -5.798,4.552 -8.353,7.018 0.193,0.17 5.308,4.713 6.556,7.553 1.081,2.465 1.774,5.905 0.384,8.391 -1.361,2.436 -4.494,3.468 -6.876,1.801 -3.306,-2.315 -3.278,-9.594 -2.215,-13.037 0.069,-0.227 1.211,-2.843 1.783,-4.073 -0.104,-0.072 -0.085,-0.059 -0.189,-0.132 -2.705,2.675 -4.989,5.606 -6.991,8.456 -1.164,1.648 -2.183,3.289 -3.139,4.907 1.04,0.748 5.753,4.221 7.157,6.653 1.346,2.331 2.413,5.674 1.304,8.298 -1.086,2.571 -4.086,3.941 -6.636,2.544 -3.54,-1.937 -4.312,-9.174 -3.635,-12.714 0.037,-0.193 0.629,-2.108 1.078,-3.498 -0.419,0.738 -0.867,1.491 -1.255,2.205 -1.466,2.676 -2.643,5.218 -3.667,7.478 -0.572,1.29 -1.064,2.467 -1.513,3.573 0.638,1.267 3.141,6.403 3.264,9.159 0.121,2.688 -0.473,6.147 -2.667,7.965 -2.148,1.781 -5.442,1.615 -7.062,-0.799 -2.249,-3.352 0.401,-10.13 2.634,-12.96 0.193,-0.245 3.649,-3.722 3.683,-3.656 0,0 0.032,0.062 0.039,0.076 0.41,-1.073 0.862,-2.219 1.382,-3.461 0.976,-2.287 2.101,-4.862 3.514,-7.581 1.405,-2.721 3.009,-5.638 4.975,-8.558 1.966,-2.93 4.185,-5.911 6.867,-8.687 0.031,-0.032 0.066,-0.06 0.096,-0.091 -1.036,0.568 -3.989,2.059 -4.228,2.149 -3.379,1.252 -10.646,1.686 -13.141,-1.486 -1.798,-2.286 -0.941,-5.471 1.414,-6.967 2.406,-1.527 5.88,-1.026 8.401,-0.082 2.843,1.063 7.5,5.716 7.869,6.087 2.58,-2.62 5.439,-5.1 8.472,-7.449 1.732,-1.346 3.518,-2.648 5.326,-3.929 -0.913,0.462 -1.732,0.869 -1.852,0.914 -3.38,1.252 -10.646,1.684 -13.141,-1.487 -1.798,-2.286 -0.941,-5.471 1.414,-6.965 2.405,-1.528 5.88,-1.027 8.401,-0.084 2.558,0.958 6.608,4.843 7.666,5.886 0.698,-0.484 1.391,-0.975 2.091,-1.458 3.361,-2.311 6.724,-4.605 9.954,-6.955 1.139,-0.828 2.229,-1.684 3.325,-2.538 -0.811,0.41 -1.498,0.748 -1.608,0.789 -3.379,1.253 -10.645,1.686 -13.14,-1.486 -1.798,-2.285 -0.941,-5.471 1.415,-6.966 2.405,-1.526 5.879,-1.025 8.4,-0.082 2.441,0.913 6.212,4.467 7.475,5.699 1.093,-0.907 2.192,-1.814 3.212,-2.743 0.682,-0.65 1.384,-1.228 2.032,-1.92 0.657,-0.671 1.307,-1.335 1.951,-1.992 1.193,-1.311 2.433,-2.658 3.564,-3.968 0.794,-0.903 1.535,-1.78 2.283,-2.661 -1.124,0.837 -3.359,2.43 -3.561,2.541 -3.15,1.75 -10.266,3.28 -13.214,0.522 -2.123,-1.987 -1.759,-5.265 0.343,-7.1 2.147,-1.873 5.656,-1.904 8.291,-1.354 2.901,0.606 8.018,4.323 8.654,4.792 C -2.282,2.805 -1.097,1.371 0,0" /></g></g></g><g
       id="g84"><g
         clip-path="url(#clipPath90)"
         id="g86"><g
           transform="translate(349.459,71.6953)"
           id="g92"><path
             id="path94"
             style="fill:#1a2e35;fill-opacity:1;fill-rule:nonzero;stroke:none"
             d="m 0,0 h -184.91 c -4.238,0 -7.674,3.437 -7.674,7.675 v 362.918 c 0,4.238 3.436,7.674 7.674,7.674 H 0 c 4.239,0 7.675,-3.436 7.675,-7.674 V 7.675 C 7.675,3.437 4.239,0 0,0" /></g><g
           transform="translate(349.459,71.6953)"
           id="g96"><path
             id="path98"
             style="fill:none;stroke:#1a2e35;stroke-width:1;stroke-linecap:round;stroke-linejoin:round;stroke-miterlimit:10;stroke-dasharray:none;stroke-opacity:1"
             d="m 0,0 h -184.91 c -4.238,0 -7.674,3.437 -7.674,7.675 v 362.918 c 0,4.238 3.436,7.674 7.674,7.674 H 0 c 4.239,0 7.675,-3.436 7.675,-7.674 V 7.675 C 7.675,3.437 4.239,0 0,0 Z" /></g><path
           id="path100"
           style="fill:#ffffff;fill-opacity:1;fill-rule:nonzero;stroke:#1a2e35;stroke-width:1;stroke-linecap:round;stroke-linejoin:round;stroke-miterlimit:10;stroke-dasharray:none;stroke-opacity:1"
           d="M 348.232,113.231 H 165.775 v 295.196 h 182.457 z" /><g
           transform="translate(276.8389,429.0884)"
           id="g102"><path
             id="path104"
             style="fill:#ffffff;fill-opacity:1;fill-rule:nonzero;stroke:none"
             d="m 0,0 h -39.669 c -1.494,0 -2.705,1.21 -2.705,2.705 0,1.493 1.211,2.705 2.705,2.705 H 0 C 1.493,5.41 2.705,4.198 2.705,2.705 2.705,1.21 1.493,0 0,0" /></g><g
           transform="translate(267.8223,96.5625)"
           id="g106"><path
             id="path108"
             style="fill:#ffffff;fill-opacity:1;fill-rule:nonzero;stroke:none"
             d="m 0,0 c 0,5.976 -4.844,10.819 -10.818,10.819 -5.975,0 -10.819,-4.843 -10.819,-10.819 0,-5.975 4.844,-10.818 10.819,-10.818 C -4.844,-10.818 0,-5.975 0,0" /></g><g
           transform="translate(267.8223,96.5625)"
           id="g110"><path
             id="path112"
             style="fill:none;stroke:#1a2e35;stroke-width:0.704;stroke-linecap:round;stroke-linejoin:round;stroke-miterlimit:10;stroke-dasharray:none;stroke-opacity:1"
             d="m 0,0 c 0,5.976 -4.844,10.819 -10.818,10.819 -5.975,0 -10.819,-4.843 -10.819,-10.819 0,-5.975 4.844,-10.818 10.819,-10.818 C -4.844,-10.818 0,-5.975 0,0 Z" /></g><path
           id="path114"
           style="fill:#1a2e35;fill-opacity:1;fill-rule:nonzero;stroke:none"
           d="M 262.487,91.08 H 251.52 v 10.967 h 10.967 z" /></g></g><g
       id="g116"><g
         clip-path="url(#clipPath122)"
         id="g118"><g
           transform="translate(361.7793,225.167)"
           id="g124"><path
             id="path126"
             style="fill:#dadada;fill-opacity:1;fill-rule:nonzero;stroke:none"
             d="m 0,0 -1.179,-8.997 c 0,0 -4.883,-33.429 -1.503,-50.707 3.381,-17.278 9.767,-34.932 10.142,-39.064 0.376,-4.131 -1.878,-20.282 0.751,-33.428 2.63,-13.147 7.513,-39.064 7.513,-39.064 l -4.132,-9.765 c 0,0 -8.639,-5.635 -9.766,-7.513 -1.127,-1.878 0.751,-2.629 0.751,-2.629 h 27.044 c 0,0 1.127,2.254 1.127,6.386 v 26.292 c 0,2.63 1.502,47.327 3.005,55.215 1.502,7.887 3.005,67.609 3.005,67.609 h 1.502 c 0,0 7.136,-59.346 9.014,-65.731 1.878,-6.386 9.766,-33.805 12.02,-39.439 2.254,-5.635 4.883,-25.166 6.386,-30.049 1.502,-4.883 3.005,-10.517 3.38,-13.522 0.376,-3.005 1.878,-6.761 1.878,-6.761 h 20.283 c 0,0 0.376,3.381 -1.127,5.634 -1.502,2.254 -11.268,12.019 -12.771,19.156 -1.502,7.137 2.254,40.19 1.878,51.834 -0.375,11.644 -3.756,13.147 -3.756,23.288 0,10.142 3.756,40.942 3.756,55.59 0,14.648 -1.948,28.152 -5.669,35.861 l -5.223,5.08 H 3.704 Z" /></g><g
           transform="translate(361.7793,225.167)"
           id="g128"><path
             id="path130"
             style="fill:none;stroke:#1a2e35;stroke-width:1;stroke-linecap:round;stroke-linejoin:round;stroke-miterlimit:10;stroke-dasharray:none;stroke-opacity:1"
             d="m 0,0 -1.179,-8.997 c 0,0 -4.883,-33.429 -1.503,-50.707 3.381,-17.278 9.767,-34.932 10.142,-39.064 0.376,-4.131 -1.878,-20.282 0.751,-33.428 2.63,-13.147 7.513,-39.064 7.513,-39.064 l -4.132,-9.765 c 0,0 -8.639,-5.635 -9.766,-7.513 -1.127,-1.878 0.751,-2.629 0.751,-2.629 h 27.044 c 0,0 1.127,2.254 1.127,6.386 v 26.292 c 0,2.63 1.502,47.327 3.005,55.215 1.502,7.887 3.005,67.609 3.005,67.609 h 1.502 c 0,0 7.136,-59.346 9.014,-65.731 1.878,-6.386 9.766,-33.805 12.02,-39.439 2.254,-5.635 4.883,-25.166 6.386,-30.049 1.502,-4.883 3.005,-10.517 3.38,-13.522 0.376,-3.005 1.878,-6.761 1.878,-6.761 h 20.283 c 0,0 0.376,3.381 -1.127,5.634 -1.502,2.254 -11.268,12.019 -12.771,19.156 -1.502,7.137 2.254,40.19 1.878,51.834 -0.375,11.644 -3.756,13.147 -3.756,23.288 0,10.142 3.756,40.942 3.756,55.59 0,14.648 -1.948,28.152 -5.669,35.861 l -5.223,5.08 H 3.704 Z" /></g><g
           transform="translate(442.1543,52.0801)"
           id="g132"><path
             id="path134"
             style="fill:#5ae4a7;fill-opacity:1;fill-rule:nonzero;stroke:none"
             d="m 0,0 -0.047,-0.051 c 0,0 -5.259,3.381 -7.137,0.751 -1.878,-2.629 -1.878,-4.132 -1.878,-4.132 h -4.002 c 0.839,-3.105 1.514,-6.009 1.749,-7.887 0.376,-3.005 1.878,-6.761 1.878,-6.761 h 20.283 c 0,0 0.376,3.381 -1.127,5.634 C 8.658,-10.854 3.482,-5.514 0,0" /></g><g
           transform="translate(442.1543,52.0801)"
           id="g136"><path
             id="path138"
             style="fill:none;stroke:#1a2e35;stroke-width:1;stroke-linecap:round;stroke-linejoin:round;stroke-miterlimit:10;stroke-dasharray:none;stroke-opacity:1"
             d="m 0,0 -0.047,-0.051 c 0,0 -5.259,3.381 -7.137,0.751 -1.878,-2.629 -1.878,-4.132 -1.878,-4.132 h -4.002 c 0.839,-3.105 1.514,-6.009 1.749,-7.887 0.376,-3.005 1.878,-6.761 1.878,-6.761 h 20.283 c 0,0 0.376,3.381 -1.127,5.634 C 8.658,-10.854 3.482,-5.514 0,0 Z" /></g><g
           transform="translate(432.7178,34)"
           id="g140"><path
             id="path142"
             style="fill:#ffffff;fill-opacity:1;fill-rule:nonzero;stroke:none"
             d="m 0,0 h 20.282 c 0,0 0.128,1.18 -0.073,2.609 H -0.91 C -0.444,1.113 0,0 0,0" /></g><g
           transform="translate(432.7178,34)"
           id="g144"><path
             id="path146"
             style="fill:none;stroke:#1a2e35;stroke-width:1;stroke-linecap:round;stroke-linejoin:round;stroke-miterlimit:10;stroke-dasharray:none;stroke-opacity:1"
             d="m 0,0 h 20.282 c 0,0 0.128,1.18 -0.073,2.609 H -0.91 C -0.444,1.113 0,0 0,0 Z" /></g><g
           transform="translate(392.5273,40.3857)"
           id="g148"><path
             id="path150"
             style="fill:#5ae4a7;fill-opacity:1;fill-rule:nonzero;stroke:none"
             d="m 0,0 v 6.385 h -7.137 c 0,0 0.376,3.005 -3.005,5.259 -3.38,2.253 -6.76,-3.005 -6.76,-3.005 h -0.188 l -2.066,-4.883 c 0,0 -8.639,-5.635 -9.766,-7.513 -1.127,-1.878 0.751,-2.629 0.751,-2.629 H -1.127 C -1.127,-6.386 0,-4.132 0,0" /></g><g
           transform="translate(392.5273,40.3857)"
           id="g152"><path
             id="path154"
             style="fill:none;stroke:#1a2e35;stroke-width:1;stroke-linecap:round;stroke-linejoin:round;stroke-miterlimit:10;stroke-dasharray:none;stroke-opacity:1"
             d="m 0,0 v 6.385 h -7.137 c 0,0 0.376,3.005 -3.005,5.259 -3.38,2.253 -6.76,-3.005 -6.76,-3.005 h -0.188 l -2.066,-4.883 c 0,0 -8.639,-5.635 -9.766,-7.513 -1.127,-1.878 0.751,-2.629 0.751,-2.629 H -1.127 C -1.127,-6.386 0,-4.132 0,0 Z" /></g><g
           transform="translate(363.5947,36.6094)"
           id="g156"><path
             id="path158"
             style="fill:#ffffff;fill-opacity:1;fill-rule:nonzero;stroke:none"
             d="m 0,0 c -1.101,-1.863 0.762,-2.609 0.762,-2.609 h 27.044 c 0,0 0.449,0.904 0.78,2.609 z" /></g><g
           transform="translate(363.5947,36.6094)"
           id="g160"><path
             id="path162"
             style="fill:none;stroke:#1a2e35;stroke-width:1;stroke-linecap:round;stroke-linejoin:round;stroke-miterlimit:10;stroke-dasharray:none;stroke-opacity:1"
             d="m 0,0 c -1.101,-1.863 0.762,-2.609 0.762,-2.609 h 27.044 c 0,0 0.449,0.904 0.78,2.609 z" /></g><g
           transform="translate(438.998,72.6396)"
           id="g164"><path
             id="path166"
             style="fill:#ffffff;fill-opacity:1;fill-rule:nonzero;stroke:none"
             d="m 0,0 c 0.634,12.788 2.234,30.186 1.982,37.984 -0.375,11.644 -3.755,13.147 -3.755,23.288 0,10.142 3.755,40.942 3.755,55.59 0,14.649 -1.948,28.153 -5.669,35.862 l -5.223,5.08 h -64.605 l -3.704,-5.277 -1.178,-8.997 c 0,0 -4.883,-33.428 -1.503,-50.707 3.38,-17.278 9.766,-34.931 10.141,-39.063 0.376,-4.132 -1.878,-20.282 0.751,-33.429 1.155,-5.771 2.743,-14.005 4.163,-21.426 4.385,-0.955 11.382,-2.093 18.453,-1.67 0.329,10.88 1.627,45.2 2.926,52.018 1.502,7.888 3.005,67.609 3.005,67.609 h 1.502 c 0,0 7.137,-59.345 9.015,-65.731 1.878,-6.386 9.765,-33.805 12.019,-39.439 0.961,-2.401 1.989,-7.326 2.97,-12.565 C -10.915,-1.576 -5.729,-1.706 0,0" /></g><g
           transform="translate(438.998,72.6396)"
           id="g168"><path
             id="path170"
             style="fill:none;stroke:#1a2e35;stroke-width:1;stroke-linecap:round;stroke-linejoin:round;stroke-miterlimit:10;stroke-dasharray:none;stroke-opacity:1"
             d="m 0,0 c 0.634,12.788 2.234,30.186 1.982,37.984 -0.375,11.644 -3.755,13.147 -3.755,23.288 0,10.142 3.755,40.942 3.755,55.59 0,14.649 -1.948,28.153 -5.669,35.862 l -5.223,5.08 h -64.605 l -3.704,-5.277 -1.178,-8.997 c 0,0 -4.883,-33.428 -1.503,-50.707 3.38,-17.278 9.766,-34.931 10.141,-39.063 0.376,-4.132 -1.878,-20.282 0.751,-33.429 1.155,-5.771 2.743,-14.005 4.163,-21.426 4.385,-0.955 11.382,-2.093 18.453,-1.67 0.329,10.88 1.627,45.2 2.926,52.018 1.502,7.888 3.005,67.609 3.005,67.609 h 1.502 c 0,0 7.137,-59.345 9.015,-65.731 1.878,-6.386 9.765,-33.805 12.019,-39.439 0.961,-2.401 1.989,-7.326 2.97,-12.565 C -10.915,-1.576 -5.729,-1.706 0,0 Z" /></g><g
           transform="translate(404.5469,192.8828)"
           id="g172"><path
             id="path174"
             style="fill:none;stroke:#1a2e35;stroke-width:1;stroke-linecap:round;stroke-linejoin:round;stroke-miterlimit:10;stroke-dasharray:none;stroke-opacity:1"
             d="M 0,0 20.282,16.15" /></g><g
           transform="translate(374.874,207.5312)"
           id="g176"><path
             id="path178"
             style="fill:none;stroke:#1a2e35;stroke-width:1;stroke-linecap:round;stroke-linejoin:round;stroke-miterlimit:10;stroke-dasharray:none;stroke-opacity:1"
             d="M 0,0 10.517,-8.639" /></g><g
           transform="translate(418.957,389.54)"
           id="g180"><path
             id="path182"
             style="fill:#1a2e35;fill-opacity:1;fill-rule:nonzero;stroke:none"
             d="m 0,0 c 0,0 -8.628,5.098 -8.432,2.353 0.197,-2.745 3.922,-4.706 3.922,-4.706 0,0 -12.353,1.765 -14.314,0.98 -1.961,-0.784 1.373,-1.764 1.373,-1.764 0,0 -15.295,-11.765 -20.589,-19.805 -5.295,-8.039 -10.001,-19.804 -4.51,-28.824 5.49,-9.02 13.529,-16.079 27.06,-20.001 13.529,-3.921 26.863,0.196 35.883,3.922 9.02,3.725 18.04,14.314 16.471,27.648 C 35.296,-26.863 23.53,-12.941 14.706,-3.529 5.883,5.883 0.393,4.51 0.393,3.138 0.393,1.765 0,0 0,0" /></g><g
           transform="translate(418.957,389.54)"
           id="g184"><path
             id="path186"
             style="fill:none;stroke:#1a2e35;stroke-width:1;stroke-linecap:round;stroke-linejoin:round;stroke-miterlimit:10;stroke-dasharray:none;stroke-opacity:1"
             d="m 0,0 c 0,0 -8.628,5.098 -8.432,2.353 0.197,-2.745 3.922,-4.706 3.922,-4.706 0,0 -12.353,1.765 -14.314,0.98 -1.961,-0.784 1.373,-1.764 1.373,-1.764 0,0 -15.295,-11.765 -20.589,-19.805 -5.295,-8.039 -10.001,-19.804 -4.51,-28.824 5.49,-9.02 13.529,-16.079 27.06,-20.001 13.529,-3.921 26.863,0.196 35.883,3.922 9.02,3.725 18.04,14.314 16.471,27.648 C 35.296,-26.863 23.53,-12.941 14.706,-3.529 5.883,5.883 0.393,4.51 0.393,3.138 0.393,1.765 0,0 0,0 Z" /></g><g
           transform="translate(397.8379,333.8379)"
           id="g188"><path
             id="path190"
             style="fill:#dadada;fill-opacity:1;fill-rule:nonzero;stroke:none"
             d="m 0,0 -2.019,-15.084 c 0,0 -14.314,-4.707 -19.608,-6.863 -5.295,-2.157 -7.647,-4.903 -8.628,-7.256 -0.98,-2.353 -15.019,-34.956 -15.607,-38.093 -0.588,-3.138 0.392,-4.511 4.706,-6.472 4.313,-1.96 16.275,5.295 16.275,5.295 l 1.569,-5.49 c 0,0 -7.844,-13.334 -9.216,-17.648 -1.373,-4.314 -3.531,-17.06 -3.531,-17.06 0,0 14.904,-7.451 38.434,-6.862 23.529,0.588 35.099,7.058 35.099,7.058 0,0 -2.549,12.746 -5.294,20.198 -2.745,7.45 -5.099,10.392 -5.099,13.333 0,2.942 8.628,18.236 8.628,18.236 l 18.229,-8.594 c 0,0 -4.307,14.869 -5.484,24.869 -1.176,10 -3.217,11.623 -7.138,15.152 -3.921,3.53 -21.177,8.628 -21.765,9.02 -0.589,0.392 0.784,16.864 0.784,16.864 C 20.335,0.603 5.49,-3.333 0,0" /></g><g
           transform="translate(397.8379,333.8379)"
           id="g192"><path
             id="path194"
             style="fill:none;stroke:#1a2e35;stroke-width:1;stroke-linecap:round;stroke-linejoin:round;stroke-miterlimit:10;stroke-dasharray:none;stroke-opacity:1"
             d="m 0,0 -2.019,-15.084 c 0,0 -14.314,-4.707 -19.608,-6.863 -5.295,-2.157 -7.647,-4.903 -8.628,-7.256 -0.98,-2.353 -15.019,-34.956 -15.607,-38.093 -0.588,-3.138 0.392,-4.511 4.706,-6.472 4.313,-1.96 16.275,5.295 16.275,5.295 l 1.569,-5.49 c 0,0 -7.844,-13.334 -9.216,-17.648 -1.373,-4.314 -3.531,-17.06 -3.531,-17.06 0,0 14.904,-7.451 38.434,-6.862 23.529,0.588 35.099,7.058 35.099,7.058 0,0 -2.549,12.746 -5.294,20.198 -2.745,7.45 -5.099,10.392 -5.099,13.333 0,2.942 8.628,18.236 8.628,18.236 l 18.229,-8.594 c 0,0 -4.307,14.869 -5.484,24.869 -1.176,10 -3.217,11.623 -7.138,15.152 -3.921,3.53 -21.177,8.628 -21.765,9.02 -0.589,0.392 0.784,16.864 0.784,16.864 C 20.335,0.603 5.49,-3.333 0,0 Z" /></g><g
           transform="translate(409.2148,323.5054)"
           id="g196"><path
             id="path198"
             style="fill:#1a2e35;fill-opacity:1;fill-rule:nonzero;stroke:none"
             d="m 0,0 c 2.742,1.028 5.999,3.599 8.57,5.913 0.204,2.815 0.388,5.022 0.388,5.022 0,0 -14.845,-3.936 -20.335,-0.602 L -12.721,0.291 C -9.682,-2.41 -4.724,-1.771 0,0" /></g><g
           transform="translate(409.2148,323.5054)"
           id="g200"><path
             id="path202"
             style="fill:none;stroke:#1a2e35;stroke-width:1;stroke-linecap:round;stroke-linejoin:round;stroke-miterlimit:10;stroke-dasharray:none;stroke-opacity:1"
             d="m 0,0 c 2.742,1.028 5.999,3.599 8.57,5.913 0.204,2.815 0.388,5.022 0.388,5.022 0,0 -14.845,-3.936 -20.335,-0.602 L -12.721,0.291 C -9.682,-2.41 -4.724,-1.771 0,0 Z" /></g><g
           transform="translate(430.0176,245.5605)"
           id="g204"><path
             id="path206"
             style="fill:#5ae4a7;fill-opacity:1;fill-rule:nonzero;stroke:none"
             d="m 0,0 c -2.745,7.451 -5.099,10.392 -5.099,13.333 0,2.942 8.628,18.236 8.628,18.236 l 18.229,-8.593 c 0,0 -4.307,14.868 -5.484,24.868 -0.635,5.409 -1.529,8.36 -2.832,10.494 -27.938,-3.545 -58.965,2.822 -71.391,5.832 -2.487,-1.671 -3.811,-3.476 -4.486,-5.095 -0.98,-2.353 -15.019,-34.957 -15.607,-38.094 -0.588,-3.138 0.393,-4.51 4.706,-6.471 4.314,-1.961 16.275,5.294 16.275,5.294 l 1.569,-5.49 c 0,0 -7.844,-13.334 -9.216,-17.648 -1.373,-4.313 -3.53,-17.06 -3.53,-17.06 0,0 14.903,-7.451 38.432,-6.862 23.531,0.588 35.1,7.059 35.1,7.059 0,0 -2.549,12.746 -5.294,20.197" /></g><g
           transform="translate(430.0176,245.5605)"
           id="g208"><path
             id="path210"
             style="fill:none;stroke:#1a2e35;stroke-width:1;stroke-linecap:round;stroke-linejoin:round;stroke-miterlimit:10;stroke-dasharray:none;stroke-opacity:1"
             d="m 0,0 c -2.745,7.451 -5.099,10.392 -5.099,13.333 0,2.942 8.628,18.236 8.628,18.236 l 18.229,-8.593 c 0,0 -4.307,14.868 -5.484,24.868 -0.635,5.409 -1.529,8.36 -2.832,10.494 -27.938,-3.545 -58.965,2.822 -71.391,5.832 -2.487,-1.671 -3.811,-3.476 -4.486,-5.095 -0.98,-2.353 -15.019,-34.957 -15.607,-38.094 -0.588,-3.138 0.393,-4.51 4.706,-6.471 4.314,-1.961 16.275,5.294 16.275,5.294 l 1.569,-5.49 c 0,0 -7.844,-13.334 -9.216,-17.648 -1.373,-4.313 -3.53,-17.06 -3.53,-17.06 0,0 14.903,-7.451 38.432,-6.862 23.531,0.588 35.1,7.059 35.1,7.059 0,0 -2.549,12.746 -5.294,20.197 z" /></g><g
           transform="translate(375.4814,270.7632)"
           id="g212"><path
             id="path214"
             style="fill:none;stroke:#1a2e35;stroke-width:1;stroke-linecap:round;stroke-linejoin:round;stroke-miterlimit:10;stroke-dasharray:none;stroke-opacity:1"
             d="m 0,0 c 0,0 -3.906,8.167 -2.841,12.428 1.066,4.261 1.776,5.327 1.776,5.327" /></g><g
           transform="translate(446.292,293.4048)"
           id="g216"><path
             id="path218"
             style="fill:#5ae4a7;fill-opacity:1;fill-rule:nonzero;stroke:none"
             d="m 0,0 c -0.636,5.409 -1.529,8.36 -2.832,10.494 -27.939,-3.545 -58.966,2.821 -71.392,5.832 -2.486,-1.671 -3.81,-3.476 -4.485,-5.095 -0.345,-0.829 -2.312,-5.412 -4.736,-11.134 10.993,-2.971 53.134,-13.427 84.869,-8.54 C 0.825,-5.531 0.307,-2.601 0,0" /></g><g
           transform="translate(446.292,293.4048)"
           id="g220"><path
             id="path222"
             style="fill:none;stroke:#1a2e35;stroke-width:1;stroke-linecap:round;stroke-linejoin:round;stroke-miterlimit:10;stroke-dasharray:none;stroke-opacity:1"
             d="m 0,0 c -0.636,5.409 -1.529,8.36 -2.832,10.494 -27.939,-3.545 -58.966,2.821 -71.392,5.832 -2.486,-1.671 -3.81,-3.476 -4.485,-5.095 -0.345,-0.829 -2.312,-5.412 -4.736,-11.134 10.993,-2.971 53.134,-13.427 84.869,-8.54 C 0.825,-5.531 0.307,-2.601 0,0 Z" /></g><g
           transform="translate(401.6719,370.3047)"
           id="g224"><path
             id="path226"
             style="fill:#dadada;fill-opacity:1;fill-rule:nonzero;stroke:none"
             d="m 0,0 25.028,-16.114 -0.685,-6.514 c 0,0 4.457,4.457 5.142,-0.343 0.686,-4.8 -1.028,-7.2 -4.114,-8.571 -3.086,-1.372 -4.8,-1.029 -4.8,-1.029 0,0 -7.543,-8.228 -13.028,-10.285 -5.485,-2.057 -11.295,-2.599 -14.037,1.858 -2.743,4.457 -6.533,12.541 -5.505,17.341 C -10.971,-18.857 -1.714,0 -1.714,0 Z" /></g><g
           transform="translate(401.6719,370.3047)"
           id="g228"><path
             id="path230"
             style="fill:none;stroke:#1a2e35;stroke-width:1;stroke-linecap:round;stroke-linejoin:round;stroke-miterlimit:10;stroke-dasharray:none;stroke-opacity:1"
             d="m 0,0 25.028,-16.114 -0.685,-6.514 c 0,0 4.457,4.457 5.142,-0.343 0.686,-4.8 -1.028,-7.2 -4.114,-8.571 -3.086,-1.372 -4.8,-1.029 -4.8,-1.029 0,0 -7.543,-8.228 -13.028,-10.285 -5.485,-2.057 -11.295,-2.599 -14.037,1.858 -2.743,4.457 -6.533,12.541 -5.505,17.341 C -10.971,-18.857 -1.714,0 -1.714,0 Z" /></g><g
           transform="translate(404.1289,355.0713)"
           id="g232"><path
             id="path234"
             style="fill:none;stroke:#1a2e35;stroke-width:1;stroke-linecap:round;stroke-linejoin:round;stroke-miterlimit:10;stroke-dasharray:none;stroke-opacity:1"
             d="m 0,0 c 0,0 0,-2.157 -1.177,-3.333 -1.177,-1.177 -3.922,-2.746 -3.922,-3.922 0,-1.177 2.55,-3.53 4.903,-3.333" /></g><g
           transform="translate(399.8145,341.9336)"
           id="g236"><path
             id="path238"
             style="fill:none;stroke:#1a2e35;stroke-width:1;stroke-linecap:round;stroke-linejoin:round;stroke-miterlimit:10;stroke-dasharray:none;stroke-opacity:1"
             d="M 0,0 C 0,0 3.53,-2.745 7.844,0.196" /></g><g
           transform="translate(409.2266,352.1299)"
           id="g240"><path
             id="path242"
             style="fill:none;stroke:#1a2e35;stroke-width:1;stroke-linecap:round;stroke-linejoin:round;stroke-miterlimit:10;stroke-dasharray:none;stroke-opacity:1"
             d="M 0,0 C 0,0 4.314,1.569 6.667,-1.765" /></g><g
           transform="translate(395.8936,354.0908)"
           id="g244"><path
             id="path246"
             style="fill:none;stroke:#1a2e35;stroke-width:1;stroke-linecap:round;stroke-linejoin:round;stroke-miterlimit:10;stroke-dasharray:none;stroke-opacity:1"
             d="M 0,0 C 0,0 3.529,1.569 5.294,-0.392" /></g><g
           transform="translate(398.0498,360.7578)"
           id="g248"><path
             id="path250"
             style="fill:none;stroke:#1a2e35;stroke-width:1;stroke-linecap:round;stroke-linejoin:round;stroke-miterlimit:10;stroke-dasharray:none;stroke-opacity:1"
             d="M 0,0 C 0,0 1.765,2.549 5.49,1.568" /></g><g
           transform="translate(411.1875,360.3657)"
           id="g252"><path
             id="path254"
             style="fill:none;stroke:#1a2e35;stroke-width:1;stroke-linecap:round;stroke-linejoin:round;stroke-miterlimit:10;stroke-dasharray:none;stroke-opacity:1"
             d="M 0,0 C 0,0 5.49,-0.196 6.667,-5.294" /></g><g
           transform="translate(360.9951,273.0122)"
           id="g256"><path
             id="path258"
             style="fill:#dadada;fill-opacity:1;fill-rule:nonzero;stroke:none"
             d="m 0,0 c 0,0 -6.078,-2.353 -8.039,-6.079 -1.961,-3.725 -1.568,-12.353 6.078,-14.51 7.648,-2.157 64.12,9.216 64.12,9.216 0,0 3.138,-4.706 4.51,-6.079 1.373,-1.372 4.902,-4.117 5.099,-5.294 0.196,-1.176 0.587,-8.628 2.156,-9.02 1.569,-0.392 0.98,3.529 0.98,3.529 0,0 2.55,3.727 2.55,5.491 0,1.765 0.392,7.451 0,8.824 -0.392,1.373 -9.608,9.412 -11.569,10 C 63.924,-3.333 13.727,-1.961 9.021,-1.177 4.314,-0.392 1.569,0.196 0,0" /></g><g
           transform="translate(360.9951,273.0122)"
           id="g260"><path
             id="path262"
             style="fill:none;stroke:#1a2e35;stroke-width:1;stroke-linecap:round;stroke-linejoin:round;stroke-miterlimit:10;stroke-dasharray:none;stroke-opacity:1"
             d="m 0,0 c 0,0 -6.078,-2.353 -8.039,-6.079 -1.961,-3.725 -1.568,-12.353 6.078,-14.51 7.648,-2.157 64.12,9.216 64.12,9.216 0,0 3.138,-4.706 4.51,-6.079 1.373,-1.372 4.902,-4.117 5.099,-5.294 0.196,-1.176 0.587,-8.628 2.156,-9.02 1.569,-0.392 0.98,3.529 0.98,3.529 0,0 2.55,3.727 2.55,5.491 0,1.765 0.392,7.451 0,8.824 -0.392,1.373 -9.608,9.412 -11.569,10 C 63.924,-3.333 13.727,-1.961 9.021,-1.177 4.314,-0.392 1.569,0.196 0,0 Z" /></g><g
           transform="translate(410.9687,326.9731)"
           id="g264"><path
             id="path266"
             style="fill:#5ae4a7;fill-opacity:1;fill-rule:nonzero;stroke:none"
             d="M 0,0 6.009,-3.994 C 7.071,-4.7 8.505,-4.411 9.211,-3.349 L 21.32,14.87 c 0.706,1.062 0.417,2.495 -0.645,3.201 l -6.009,3.994 C 13.604,22.771 12.17,22.482 11.464,21.42 L -0.645,3.202 C -1.351,2.139 -1.062,0.706 0,0" /></g><g
           transform="translate(410.9687,326.9731)"
           id="g268"><path
             id="path270"
             style="fill:none;stroke:#1a2e35;stroke-width:1;stroke-linecap:butt;stroke-linejoin:miter;stroke-miterlimit:10;stroke-dasharray:none;stroke-opacity:1"
             d="M 0,0 6.009,-3.994 C 7.071,-4.7 8.505,-4.411 9.211,-3.349 L 21.32,14.87 c 0.706,1.062 0.417,2.495 -0.645,3.201 l -6.009,3.994 C 13.604,22.771 12.17,22.482 11.464,21.42 L -0.645,3.202 C -1.351,2.139 -1.062,0.706 0,0 Z" /></g><g
           transform="translate(428.9893,326.6475)"
           id="g272"><path
             id="path274"
             style="fill:#dadada;fill-opacity:1;fill-rule:nonzero;stroke:none"
             d="M 0,0 C 0,0 1.237,3.179 2.474,5.475 3.71,7.771 3.71,8.831 2.826,8.831 1.943,8.831 -0.353,7.771 -1.06,5.122 -1.766,2.473 -1.413,-0.707 -1.413,-0.707 Z" /></g><g
           transform="translate(428.9893,326.6475)"
           id="g276"><path
             id="path278"
             style="fill:none;stroke:#1a2e35;stroke-width:1;stroke-linecap:butt;stroke-linejoin:miter;stroke-miterlimit:10;stroke-dasharray:none;stroke-opacity:1"
             d="M 0,0 C 0,0 1.237,3.179 2.474,5.475 3.71,7.771 3.71,8.831 2.826,8.831 1.943,8.831 -0.353,7.771 -1.06,5.122 -1.766,2.473 -1.413,-0.707 -1.413,-0.707 Z" /></g><g
           transform="translate(418.3916,314.46)"
           id="g280"><path
             id="path282"
             style="fill:#dadada;fill-opacity:1;fill-rule:nonzero;stroke:none"
             d="m 0,0 c 0,0 10.068,10.068 10.422,10.951 0.304,0.759 -0.046,12.352 -0.15,15.591 -0.015,0.488 -0.37,0.897 -0.849,0.985 C 8.821,27.636 8.257,27.204 8.206,26.596 L 7.419,17.31 5.111,29.014 C 5.015,29.5 4.589,29.85 4.094,29.85 3.5,29.85 3.027,29.354 3.058,28.761 L 3.71,15.72 0.806,26.851 C 0.654,27.433 0.057,27.778 -0.523,27.62 -1.035,27.48 -1.37,26.989 -1.312,26.461 L 0,14.483 -2.473,12.364 v 4.239 l -2.959,4.983 c -0.223,0.377 -0.7,0.518 -1.092,0.321 -0.401,-0.2 -0.573,-0.681 -0.39,-1.09 l 1.969,-4.391 c 0,0 -3.886,-15.896 -4.063,-16.426 -0.177,-0.53 0.706,-3.356 1.237,-4.416 0.53,-1.06 24.198,-51.223 25.611,-53.166 1.413,-1.942 10.951,-4.945 15.19,-0.353 4.24,4.593 2.826,9.185 0.53,14.484 C 31.264,-38.152 0,0 0,0" /></g><g
           transform="translate(418.3916,314.46)"
           id="g284"><path
             id="path286"
             style="fill:none;stroke:#1a2e35;stroke-width:1;stroke-linecap:butt;stroke-linejoin:miter;stroke-miterlimit:10;stroke-dasharray:none;stroke-opacity:1"
             d="m 0,0 c 0,0 10.068,10.068 10.422,10.951 0.304,0.759 -0.046,12.352 -0.15,15.591 -0.015,0.488 -0.37,0.897 -0.849,0.985 C 8.821,27.636 8.257,27.204 8.206,26.596 L 7.419,17.31 5.111,29.014 C 5.015,29.5 4.589,29.85 4.094,29.85 3.5,29.85 3.027,29.354 3.058,28.761 L 3.71,15.72 0.806,26.851 C 0.654,27.433 0.057,27.778 -0.523,27.62 -1.035,27.48 -1.37,26.989 -1.312,26.461 L 0,14.483 -2.473,12.364 v 4.239 l -2.959,4.983 c -0.223,0.377 -0.7,0.518 -1.092,0.321 -0.401,-0.2 -0.573,-0.681 -0.39,-1.09 l 1.969,-4.391 c 0,0 -3.886,-15.896 -4.063,-16.426 -0.177,-0.53 0.706,-3.356 1.237,-4.416 0.53,-1.06 24.198,-51.223 25.611,-53.166 1.413,-1.942 10.951,-4.945 15.19,-0.353 4.24,4.593 2.826,9.185 0.53,14.484 C 31.264,-38.152 0,0 0,0 Z" /></g></g></g><g
       id="g288"><g
         clip-path="url(#clipPath294)"
         id="g290"><g
           transform="translate(296,351)"
           id="g296"><path
             id="path298"
             style="fill:#5ae4a7;fill-opacity:1;fill-rule:nonzero;stroke:none"
             d="m 0,0 c 0,23.196 -18.804,42 -42,42 -23.196,0 -42,-18.804 -42,-42 0,-23.196 18.804,-42 42,-42 23.196,0 42,18.804 42,42" /></g><g
           transform="translate(279.6455,370.0112)"
           id="g300"><path
             id="path302"
             style="fill:#1a2e35;fill-opacity:1;fill-rule:nonzero;stroke:none"
             d="m 0,0 h -49.788 l 24.54,-23.657 z" /></g><g
           transform="translate(264.3682,351.5854)"
           id="g304"><path
             id="path306"
             style="fill:#1a2e35;fill-opacity:1;fill-rule:nonzero;stroke:none"
             d="M 0,0 17.333,-15.318 V 16.241 Z" /></g><g
           transform="translate(244.6172,351.6157)"
           id="g308"><path
             id="path310"
             style="fill:#1a2e35;fill-opacity:1;fill-rule:nonzero;stroke:none"
             d="M 0,0 -17.553,16.922 V -14.627 Z" /></g><g
           transform="translate(262.1689,349.5254)"
           id="g312"><path
             id="path314"
             style="fill:#1a2e35;fill-opacity:1;fill-rule:nonzero;stroke:none"
             d="m 0,0 -7.801,-7.31 -7.578,7.306 -18.267,-15.222 h 50.875 z" /></g><g
           transform="translate(296,259)"
           id="g316"><path
             id="path318"
             style="fill:#5ae4a7;fill-opacity:1;fill-rule:nonzero;stroke:none"
             d="m 0,0 c 0,23.196 -18.804,42 -42,42 -23.196,0 -42,-18.804 -42,-42 0,-23.196 18.804,-42 42,-42 23.196,0 42,18.804 42,42" /></g><g
           transform="translate(248.3945,272.251)"
           id="g320"><path
             id="path322"
             style="fill:#1a2e35;fill-opacity:1;fill-rule:nonzero;stroke:none"
             d="M 0,0 C 0.595,-1.02 1.634,-1.273 2.665,-0.708 4.032,0.04 5.406,0.788 6.695,1.659 7.187,1.992 7.452,2.663 7.796,3.145 7.547,3.741 7.42,4.145 7.22,4.508 6.671,5.5 6.092,6.475 5.524,7.457 c -1.93,3.345 -3.857,6.691 -5.793,10.033 -0.777,1.341 -1.756,1.6 -3.11,0.829 -1.232,-0.701 -2.469,-1.395 -3.677,-2.137 -1.03,-0.633 -1.329,-1.626 -0.748,-2.646 C -5.223,9.012 -2.625,4.499 0,0" /></g><g
           transform="translate(277.2217,239.3359)"
           id="g324"><path
             id="path326"
             style="fill:#1a2e35;fill-opacity:1;fill-rule:nonzero;stroke:none"
             d="m 0,0 c -2.527,4.402 -5.064,8.8 -7.617,13.188 -0.701,1.206 -1.665,1.468 -2.873,0.802 -1.275,-0.703 -2.535,-1.433 -3.783,-2.182 -1.038,-0.622 -1.364,-1.621 -0.827,-2.645 l 8.281,-14.125 c 0.598,-0.526 1.4,-0.602 2.189,-0.173 1.341,0.73 2.687,1.462 3.955,2.307 0.503,0.335 0.806,0.973 1.183,1.45 C 0.291,-0.778 0.204,-0.355 0,0" /></g><g
           transform="translate(260.0801,247.5879)"
           id="g328"><path
             id="path330"
             style="fill:#1a2e35;fill-opacity:1;fill-rule:nonzero;stroke:none"
             d="m 0,0 c -1.757,-0.623 -3.421,-0.425 -5.035,0.437 -0.839,0.449 -1.672,0.962 -2.381,1.589 -3.788,3.347 -6.187,7.553 -7.354,12.439 -0.726,3.04 -0.926,6.02 1.37,8.394 l -8.524,14.542 c -0.671,-0.43 -1.314,-0.843 -1.923,-1.268 -2.547,-1.779 -3.96,-4.245 -3.73,-7.34 0.22,-2.954 0.52,-5.96 1.291,-8.806 2.754,-10.168 7.9,-19.099 14.703,-27.09 2.608,-3.064 5.524,-5.819 9.006,-7.902 3.601,-2.154 7.885,-1.931 11.076,0.507 z" /></g><g
           transform="translate(296,167)"
           id="g332"><path
             id="path334"
             style="fill:#5ae4a7;fill-opacity:1;fill-rule:nonzero;stroke:none"
             d="m 0,0 c 0,23.196 -18.804,42 -42,42 -23.196,0 -42,-18.804 -42,-42 0,-23.196 18.804,-42 42,-42 23.196,0 42,18.804 42,42" /></g><g
           transform="translate(247.811,159.125)"
           id="g336"><path
             id="path338"
             style="fill:#1a2e35;fill-opacity:1;fill-rule:nonzero;stroke:none"
             d="m 0,0 h -9.334 v -4.725 c 0,-3.08 2.387,-5.595 5.411,-5.812 z" /></g><g
           transform="translate(273.8223,175.333)"
           id="g340"><path
             id="path342"
             style="fill:#1a2e35;fill-opacity:1;fill-rule:nonzero;stroke:none"
             d="m 0,0 h -4.038 v -8.235 c 0,-4.397 -3.577,-7.973 -7.973,-7.973 h -0.137 l -14.27,-10.559 h 15.495 l -3.833,-10.295 13.913,10.295 H 0 c 3.223,0 5.834,2.613 5.834,5.834 v 15.1 C 5.834,-2.611 3.223,0 0,0" /></g><g
           transform="translate(261.8115,188.0303)"
           id="g344"><path
             id="path346"
             style="fill:#1a2e35;fill-opacity:1;fill-rule:nonzero;stroke:none"
             d="m 0,0 h -29.512 c -3.222,0 -5.834,-2.611 -5.834,-5.834 v -15.099 c 0,-3.222 2.612,-5.834 5.834,-5.834 h 18.589 l -3.833,-10.295 13.913,10.295 H 0 c 3.223,0 5.834,2.612 5.834,5.834 V -5.834 C 5.834,-2.611 3.223,0 0,0" /></g><g
           transform="translate(241.0596,175.0293)"
           id="g348"><path
             id="path350"
             style="fill:#5ae4a7;fill-opacity:1;fill-rule:nonzero;stroke:none"
             d="m 0,0 c 0,-1.153 -0.935,-2.087 -2.087,-2.087 -1.152,0 -2.086,0.934 -2.086,2.087 0,1.152 0.934,2.086 2.086,2.086 C -0.935,2.086 0,1.152 0,0" /></g><g
           transform="translate(249.5664,175.0293)"
           id="g352"><path
             id="path354"
             style="fill:#5ae4a7;fill-opacity:1;fill-rule:nonzero;stroke:none"
             d="m 0,0 c 0,-1.153 -0.934,-2.087 -2.086,-2.087 -1.153,0 -2.087,0.934 -2.087,2.087 0,1.152 0.934,2.086 2.087,2.086 C -0.934,2.086 0,1.152 0,0" /></g><g
           transform="translate(258.0742,175.0293)"
           id="g356"><path
             id="path358"
             style="fill:#5ae4a7;fill-opacity:1;fill-rule:nonzero;stroke:none"
             d="m 0,0 c 0,-1.153 -0.935,-2.087 -2.087,-2.087 -1.152,0 -2.087,0.934 -2.087,2.087 0,1.152 0.935,2.086 2.087,2.086 C -0.935,2.086 0,1.152 0,0" /></g></g></g><g
       id="g360"><g
         clip-path="url(#clipPath366)"
         id="g362"><g
           transform="translate(153.1743,289.3911)"
           id="g368"><path
             id="path370"
             style="fill:#ffffff;fill-opacity:1;fill-rule:nonzero;stroke:none"
             d="M 0,0 0.757,1.031 13.15,17.906 c 0,0 1.679,10.073 2.517,12.59 0.84,2.518 2.519,7.834 3.078,9.793 0.56,1.958 1.119,4.196 2.238,3.357 1.12,-0.839 1.12,-4.197 0.56,-5.875 -0.56,-1.679 -0.56,-3.917 -0.28,-4.757 0.28,-0.839 15.109,11.751 16.508,10.632 1.398,-1.119 -0.56,-6.435 -3.358,-10.072 -2.798,-3.637 -14.269,-16.787 -14.269,-16.787 0,0 -13.149,-35.253 -17.066,-40.849 -3.917,-5.595 -4.757,-3.077 -8.674,0 -3.917,3.078 -8.953,10.073 -8.953,10.073 z" /></g><g
           transform="translate(153.1743,289.3911)"
           id="g372"><path
             id="path374"
             style="fill:none;stroke:#1a2e35;stroke-width:1;stroke-linecap:round;stroke-linejoin:round;stroke-miterlimit:10;stroke-dasharray:none;stroke-opacity:1"
             d="M 0,0 0.757,1.031 13.15,17.906 c 0,0 1.679,10.073 2.517,12.59 0.84,2.518 2.519,7.834 3.078,9.793 0.56,1.958 1.119,4.196 2.238,3.357 1.12,-0.839 1.12,-4.197 0.56,-5.875 -0.56,-1.679 -0.56,-3.917 -0.28,-4.757 0.28,-0.839 15.109,11.751 16.508,10.632 1.398,-1.119 -0.56,-6.435 -3.358,-10.072 -2.798,-3.637 -14.269,-16.787 -14.269,-16.787 0,0 -13.149,-35.253 -17.066,-40.849 -3.917,-5.595 -4.757,-3.077 -8.674,0 -3.917,3.078 -8.953,10.073 -8.953,10.073 z" /></g><g
           transform="translate(173.5981,312.8931)"
           id="g376"><path
             id="path378"
             style="fill:#ffffff;fill-opacity:1;fill-rule:nonzero;stroke:#1a2e35;stroke-width:1;stroke-linecap:round;stroke-linejoin:round;stroke-miterlimit:10;stroke-dasharray:none;stroke-opacity:1"
             d="m 0,0 c 0,0 1.399,5.036 2.798,6.155 1.399,1.119 6.715,4.476 6.715,4.476 l 3.637,11.192 c 0,0 1.119,0.839 0.839,-1.679 C 13.709,17.626 13.15,12.03 12.311,9.512 11.471,6.994 7.834,2.518 7.834,2.518" /></g><g
           transform="translate(133.0298,332.1978)"
           id="g380"><path
             id="path382"
             style="fill:#5ae4a7;fill-opacity:1;fill-rule:nonzero;stroke:none"
             d="M 0,0 21.543,-42.247 5.036,-59.034 0.28,-43.086 Z" /></g><g
           transform="translate(133.0298,332.1978)"
           id="g384"><path
             id="path386"
             style="fill:none;stroke:#1a2e35;stroke-width:1;stroke-linecap:round;stroke-linejoin:round;stroke-miterlimit:10;stroke-dasharray:none;stroke-opacity:1"
             d="M 0,0 21.543,-42.247 5.036,-59.034 0.28,-43.086 Z" /></g><g
           transform="translate(136.0933,279.7773)"
           id="g388"><path
             id="path390"
             style="fill:#1a2e35;fill-opacity:1;fill-rule:nonzero;stroke:none"
             d="M 0,0 1.973,-6.614 18.48,10.173 15.511,15.996 Z" /></g><g
           transform="translate(136.0933,279.7773)"
           id="g392"><path
             id="path394"
             style="fill:none;stroke:#1a2e35;stroke-width:1;stroke-linecap:butt;stroke-linejoin:miter;stroke-miterlimit:10;stroke-dasharray:none;stroke-opacity:1"
             d="M 0,0 1.973,-6.614 18.48,10.173 15.511,15.996 Z" /></g><g
           transform="translate(81.376,54.0186)"
           id="g396"><path
             id="path398"
             style="fill:#1a2e35;fill-opacity:1;fill-rule:nonzero;stroke:none"
             d="m 0,0 -1.988,-7.927 c 0,0 -11.731,-6.497 -12.633,-7.399 -0.902,-0.903 -0.542,-4.693 -0.542,-4.693 h 33.569 c 0,0 0.361,3.79 -0.722,8.664 -0.627,2.818 -0.926,10.61 -0.926,10.61 z" /></g><g
           transform="translate(81.376,54.0186)"
           id="g400"><path
             id="path402"
             style="fill:none;stroke:#1a2e35;stroke-width:1;stroke-linecap:round;stroke-linejoin:round;stroke-miterlimit:10;stroke-dasharray:none;stroke-opacity:1"
             d="m 0,0 -1.988,-7.927 c 0,0 -11.731,-6.497 -12.633,-7.399 -0.902,-0.903 -0.542,-4.693 -0.542,-4.693 h 33.569 c 0,0 0.361,3.79 -0.722,8.664 -0.627,2.818 -0.926,10.61 -0.926,10.61 z" /></g><g
           transform="translate(66.2134,34)"
           id="g404"><path
             id="path406"
             style="fill:#ffffff;fill-opacity:1;fill-rule:nonzero;stroke:none"
             d="m 0,0 h 33.568 c 0,0 0.076,0.815 0.052,2.166 H -0.062 C -0.098,1.044 0,0 0,0" /></g><g
           transform="translate(66.2134,34)"
           id="g408"><path
             id="path410"
             style="fill:none;stroke:#1a2e35;stroke-width:1;stroke-linecap:round;stroke-linejoin:round;stroke-miterlimit:10;stroke-dasharray:none;stroke-opacity:1"
             d="m 0,0 h 33.568 c 0,0 0.076,0.815 0.052,2.166 H -0.062 C -0.098,1.044 0,0 0,0 Z" /></g><g
           transform="translate(67.4771,39.0537)"
           id="g412"><path
             id="path414"
             style="fill:#ffffff;fill-opacity:1;fill-rule:nonzero;stroke:none"
             d="m 0,0 c 0,0 2.707,2.707 8.121,3.609 5.414,0.903 10.287,-1.083 11.37,-2.166 1.083,-1.083 1.804,-4.151 1.804,-4.151 l -22.621,-0.18 c 0,0 -1.201,2.165 1.326,2.888" /></g><g
           transform="translate(67.4771,39.0537)"
           id="g416"><path
             id="path418"
             style="fill:none;stroke:#1a2e35;stroke-width:1;stroke-linecap:round;stroke-linejoin:round;stroke-miterlimit:10;stroke-dasharray:none;stroke-opacity:1"
             d="m 0,0 c 0,0 2.707,2.707 8.121,3.609 5.414,0.903 10.287,-1.083 11.37,-2.166 1.083,-1.083 1.804,-4.151 1.804,-4.151 l -22.621,-0.18 c 0,0 -1.201,2.165 1.326,2.888 z" /></g><g
           transform="translate(96.3525,47.626)"
           id="g420"><path
             id="path422"
             style="fill:#ffffff;fill-opacity:1;fill-rule:nonzero;stroke:none"
             d="m 0,0 c 0,-1.944 -0.687,-3.52 -1.534,-3.52 -0.847,0 -1.534,1.576 -1.534,3.52 0,1.943 0.687,3.519 1.534,3.519 C -0.687,3.519 0,1.943 0,0" /></g><g
           transform="translate(96.3525,47.626)"
           id="g424"><path
             id="path426"
             style="fill:none;stroke:#1a2e35;stroke-width:1;stroke-linecap:round;stroke-linejoin:round;stroke-miterlimit:10;stroke-dasharray:none;stroke-opacity:1"
             d="m 0,0 c 0,-1.944 -0.687,-3.52 -1.534,-3.52 -0.847,0 -1.534,1.576 -1.534,3.52 0,1.943 0.687,3.519 1.534,3.519 C -0.687,3.519 0,1.943 0,0 Z" /></g><g
           transform="translate(165.1816,54.0186)"
           id="g428"><path
             id="path430"
             style="fill:#1a2e35;fill-opacity:1;fill-rule:nonzero;stroke:none"
             d="m 0,0 1.988,-7.927 c 0,0 11.73,-6.497 12.633,-7.399 0.902,-0.903 0.541,-4.693 0.541,-4.693 h -33.568 c 0,0 -0.361,3.79 0.722,8.664 0.626,2.818 0.926,10.61 0.926,10.61 z" /></g><g
           transform="translate(165.1816,54.0186)"
           id="g432"><path
             id="path434"
             style="fill:none;stroke:#1a2e35;stroke-width:1;stroke-linecap:round;stroke-linejoin:round;stroke-miterlimit:10;stroke-dasharray:none;stroke-opacity:1"
             d="m 0,0 1.988,-7.927 c 0,0 11.73,-6.497 12.633,-7.399 0.902,-0.903 0.541,-4.693 0.541,-4.693 h -33.568 c 0,0 -0.361,3.79 0.722,8.664 0.626,2.818 0.926,10.61 0.926,10.61 z" /></g><g
           transform="translate(180.3437,34)"
           id="g436"><path
             id="path438"
             style="fill:#ffffff;fill-opacity:1;fill-rule:nonzero;stroke:none"
             d="m 0,0 h -33.568 c 0,0 -0.076,0.815 -0.052,2.166 H 0.062 C 0.098,1.044 0,0 0,0" /></g><g
           transform="translate(180.3437,34)"
           id="g440"><path
             id="path442"
             style="fill:none;stroke:#1a2e35;stroke-width:1;stroke-linecap:round;stroke-linejoin:round;stroke-miterlimit:10;stroke-dasharray:none;stroke-opacity:1"
             d="m 0,0 h -33.568 c 0,0 -0.076,0.815 -0.052,2.166 H 0.062 C 0.098,1.044 0,0 0,0 Z" /></g><g
           transform="translate(179.0806,39.0537)"
           id="g444"><path
             id="path446"
             style="fill:#ffffff;fill-opacity:1;fill-rule:nonzero;stroke:none"
             d="m 0,0 c 0,0 -2.707,2.707 -8.122,3.609 -5.414,0.903 -10.286,-1.083 -11.369,-2.166 -1.083,-1.083 -1.805,-4.151 -1.805,-4.151 l 22.621,-0.18 c 0,0 1.201,2.165 -1.325,2.888" /></g><g
           transform="translate(179.0806,39.0537)"
           id="g448"><path
             id="path450"
             style="fill:none;stroke:#1a2e35;stroke-width:1;stroke-linecap:round;stroke-linejoin:round;stroke-miterlimit:10;stroke-dasharray:none;stroke-opacity:1"
             d="m 0,0 c 0,0 -2.707,2.707 -8.122,3.609 -5.414,0.903 -10.286,-1.083 -11.369,-2.166 -1.083,-1.083 -1.805,-4.151 -1.805,-4.151 l 22.621,-0.18 c 0,0 1.201,2.165 -1.325,2.888 z" /></g><g
           transform="translate(150.2046,47.626)"
           id="g452"><path
             id="path454"
             style="fill:#ffffff;fill-opacity:1;fill-rule:nonzero;stroke:none"
             d="m 0,0 c 0,-1.944 0.687,-3.52 1.534,-3.52 0.847,0 1.534,1.576 1.534,3.52 0,1.943 -0.687,3.519 -1.534,3.519 C 0.687,3.519 0,1.943 0,0" /></g><g
           transform="translate(150.2046,47.626)"
           id="g456"><path
             id="path458"
             style="fill:none;stroke:#1a2e35;stroke-width:1;stroke-linecap:round;stroke-linejoin:round;stroke-miterlimit:10;stroke-dasharray:none;stroke-opacity:1"
             d="m 0,0 c 0,-1.944 0.687,-3.52 1.534,-3.52 0.847,0 1.534,1.576 1.534,3.52 0,1.943 -0.687,3.519 -1.534,3.519 C 0.687,3.519 0,1.943 0,0 Z" /></g><g
           transform="translate(81.0034,222.3428)"
           id="g460"><path
             id="path462"
             style="fill:#ffffff;fill-opacity:1;fill-rule:nonzero;stroke:none"
             d="m 0,0 -1.117,-17.503 1.49,-150.821 16.757,-0.745 16.758,139.277 2.235,0.745 31.297,-140.022 16.758,0.745 -7.464,93.845 -11.258,80.535 z" /></g><g
           transform="translate(81.0034,222.3428)"
           id="g464"><path
             id="path466"
             style="fill:none;stroke:#1a2e35;stroke-width:1;stroke-linecap:round;stroke-linejoin:round;stroke-miterlimit:10;stroke-dasharray:none;stroke-opacity:1"
             d="m 0,0 -1.117,-17.503 1.49,-150.821 16.757,-0.745 16.758,139.277 2.235,0.745 31.297,-140.022 16.758,0.745 -7.464,93.845 -11.258,80.535 z" /></g><g
           transform="translate(116.3618,217.5908)"
           id="g468"><path
             id="path470"
             style="fill:none;stroke:#818181;stroke-width:1;stroke-linecap:round;stroke-linejoin:round;stroke-miterlimit:10;stroke-dasharray:none;stroke-opacity:1"
             d="m 0,0 v -12.772 l 3.483,5.805 0.581,8.709" /></g><g
           transform="translate(92.4614,334.1562)"
           id="g472"><path
             id="path474"
             style="fill:#5ae4a7;fill-opacity:1;fill-rule:nonzero;stroke:none"
             d="m 0,0 c 0,0 -37.771,-16.507 -38.331,-18.186 -0.559,-1.678 -10.631,-43.366 -8.953,-47.283 1.679,-3.917 6.715,-6.995 12.031,-5.036 5.316,1.958 10.352,22.382 10.352,22.382 0,0 11.751,-35.812 11.751,-39.449 0,-3.637 1.119,-26.02 1.119,-26.02 0,0 21.543,-3.077 39.449,1.119 17.907,4.197 26.58,6.715 26.58,6.715 l -8.394,51.2 c 0,0 -4.476,50.641 -5.036,52.6 C 40.009,0 8.114,0.56 5.596,0.28 3.078,0 0,0 0,0" /></g><g
           transform="translate(92.4614,334.1562)"
           id="g476"><path
             id="path478"
             style="fill:none;stroke:#1a2e35;stroke-width:1;stroke-linecap:round;stroke-linejoin:round;stroke-miterlimit:10;stroke-dasharray:none;stroke-opacity:1"
             d="m 0,0 c 0,0 -37.771,-16.507 -38.331,-18.186 -0.559,-1.678 -10.631,-43.366 -8.953,-47.283 1.679,-3.917 6.715,-6.995 12.031,-5.036 5.316,1.958 10.352,22.382 10.352,22.382 0,0 11.751,-35.812 11.751,-39.449 0,-3.637 1.119,-26.02 1.119,-26.02 0,0 21.543,-3.077 39.449,1.119 17.907,4.197 26.58,6.715 26.58,6.715 l -8.394,51.2 c 0,0 -4.476,50.641 -5.036,52.6 C 40.009,0 8.114,0.56 5.596,0.28 3.078,0 0,0 0,0 Z" /></g><g
           transform="translate(63.8105,274.0493)"
           id="g480"><path
             id="path482"
             style="fill:#1a2e35;fill-opacity:1;fill-rule:nonzero;stroke:none"
             d="m 0,0 c -1.428,4.374 -3.966,8.487 -6.668,10.889 -3.12,2.773 -7.273,1.2 -10.115,-0.517 -1.498,-7.769 -2.466,-14.296 -1.85,-15.734 1.679,-3.917 6.715,-6.995 12.031,-5.036 C -4.197,-9.512 -1.851,-4.845 0,0" /></g><g
           transform="translate(63.8105,274.0493)"
           id="g484"><path
             id="path486"
             style="fill:none;stroke:#1a2e35;stroke-width:1;stroke-linecap:butt;stroke-linejoin:miter;stroke-miterlimit:10;stroke-dasharray:none;stroke-opacity:1"
             d="m 0,0 c -1.428,4.374 -3.966,8.487 -6.668,10.889 -3.12,2.773 -7.273,1.2 -10.115,-0.517 -1.498,-7.769 -2.466,-14.296 -1.85,-15.734 1.679,-3.917 6.715,-6.995 12.031,-5.036 C -4.197,-9.512 -1.851,-4.845 0,0 Z" /></g><g
           transform="translate(74.8662,263.0513)"
           id="g488"><path
             id="path490"
             style="fill:#1a2e35;fill-opacity:1;fill-rule:nonzero;stroke:none"
             d="M 0,0 63.717,13.39 63.2,16.547 c 0,0 -0.092,1.036 -0.25,2.813 L -1.786,5.756 C -1.187,3.845 -0.584,1.905 0,0" /></g><g
           transform="translate(146.4595,228.3984)"
           id="g492"><path
             id="path494"
             style="fill:#1a2e35;fill-opacity:1;fill-rule:nonzero;stroke:none"
             d="M 0,0 -6.286,38.341 -68.843,25.382 c 1.021,-3.612 1.695,-6.327 1.695,-7.196 0,-3.637 1.119,-26.02 1.119,-26.02 0,0 21.543,-3.078 39.449,1.119 C -8.673,-2.519 0,0 0,0" /></g><g
           transform="translate(146.4595,228.3984)"
           id="g496"><path
             id="path498"
             style="fill:none;stroke:#1a2e35;stroke-width:1;stroke-linecap:butt;stroke-linejoin:miter;stroke-miterlimit:10;stroke-dasharray:none;stroke-opacity:1"
             d="M 0,0 -6.286,38.341 -68.843,25.382 c 1.021,-3.612 1.695,-6.327 1.695,-7.196 0,-3.637 1.119,-26.02 1.119,-26.02 0,0 21.543,-3.078 39.449,1.119 C -8.673,-2.519 0,0 0,0 Z" /></g><g
           transform="translate(98.0566,334.436)"
           id="g500"><path
             id="path502"
             style="fill:#1a2e35;fill-opacity:1;fill-rule:nonzero;stroke:none"
             d="m 0,0 c -2.518,-0.28 -5.595,-0.28 -5.595,-0.28 0,0 -7.086,-3.096 -15.163,-6.743 l 32.677,-33.766 c 0,0 6.967,33.674 6.386,36.578 -0.25,1.249 -0.714,2.711 -1.163,3.974 C 9.136,0.075 1.205,0.134 0,0" /></g><g
           transform="translate(98.0566,334.436)"
           id="g504"><path
             id="path506"
             style="fill:none;stroke:#1a2e35;stroke-width:1;stroke-linecap:butt;stroke-linejoin:miter;stroke-miterlimit:10;stroke-dasharray:none;stroke-opacity:1"
             d="m 0,0 c -2.518,-0.28 -5.595,-0.28 -5.595,-0.28 0,0 -7.086,-3.096 -15.163,-6.743 l 32.677,-33.766 c 0,0 6.967,33.674 6.386,36.578 -0.25,1.249 -0.714,2.711 -1.163,3.974 C 9.136,0.075 1.205,0.134 0,0 Z" /></g><g
           transform="translate(108.6885,343.9487)"
           id="g508"><path
             id="path510"
             style="fill:#ffffff;fill-opacity:1;fill-rule:nonzero;stroke:none"
             d="m 0,0 c 0,0 1.679,-14.549 2.518,-17.347 0.839,-2.798 -4.756,-22.382 -4.756,-22.382 0,0 -16.227,16.507 -18.186,21.263 -1.958,4.757 -6.435,21.264 -6.435,21.264 0,0 14.269,-7.275 26.859,-2.798" /></g><g
           transform="translate(108.6885,343.9487)"
           id="g512"><path
             id="path514"
             style="fill:none;stroke:#1a2e35;stroke-width:1;stroke-linecap:round;stroke-linejoin:round;stroke-miterlimit:10;stroke-dasharray:none;stroke-opacity:1"
             d="m 0,0 c 0,0 1.679,-14.549 2.518,-17.347 0.839,-2.798 -4.756,-22.382 -4.756,-22.382 0,0 -16.227,16.507 -18.186,21.263 -1.958,4.757 -6.435,21.264 -6.435,21.264 0,0 14.269,-7.275 26.859,-2.798 z" /></g><g
           transform="translate(81.8296,346.7466)"
           id="g516"><path
             id="path518"
             style="fill:#1a2e35;fill-opacity:1;fill-rule:nonzero;stroke:none"
             d="m 0,0 c 0,0 1.022,-3.768 2.302,-8.221 0.681,-0.375 1.5,-0.807 2.498,-1.306 5.097,-2.548 10.76,-3.964 16.99,-3.114 2.674,0.364 4.446,2.037 5.757,4.202 -0.398,3.132 -0.688,5.641 -0.688,5.641 C 14.269,-7.274 0,0 0,0" /></g><g
           transform="translate(81.8296,346.7466)"
           id="g520"><path
             id="path522"
             style="fill:none;stroke:#1a2e35;stroke-width:1;stroke-linecap:round;stroke-linejoin:round;stroke-miterlimit:10;stroke-dasharray:none;stroke-opacity:1"
             d="m 0,0 c 0,0 1.022,-3.768 2.302,-8.221 0.681,-0.375 1.5,-0.807 2.498,-1.306 5.097,-2.548 10.76,-3.964 16.99,-3.114 2.674,0.364 4.446,2.037 5.757,4.202 -0.398,3.132 -0.688,5.641 -0.688,5.641 C 14.269,-7.274 0,0 0,0 Z" /></g><g
           transform="translate(101.4976,380.6709)"
           id="g524"><path
             id="path526"
             style="fill:#ffffff;fill-opacity:1;fill-rule:nonzero;stroke:none"
             d="m 0,0 c 0,0 4.248,-8.495 7.079,-12.175 2.831,-3.681 7.361,-11.891 5.38,-16.705 -1.977,-4.805 -3.275,-13.01 -9.627,-13.876 -6.23,-0.849 -11.893,0.567 -16.99,3.115 -5.096,2.548 -5.663,3.397 -5.663,3.397 0,0 -4.247,0 -6.795,1.983 -2.549,1.982 -7.645,8.211 -6.23,13.591 1.416,5.38 4.814,5.946 4.814,5.946 0,0 -7.079,2.831 -2.549,9.911 4.531,7.078 14.158,9.626 18.689,9.626 C -7.362,4.813 0,0 0,0" /></g><g
           transform="translate(101.4976,380.6709)"
           id="g528"><path
             id="path530"
             style="fill:none;stroke:#1a2e35;stroke-width:1;stroke-linecap:round;stroke-linejoin:round;stroke-miterlimit:10;stroke-dasharray:none;stroke-opacity:1"
             d="m 0,0 c 0,0 4.248,-8.495 7.079,-12.175 2.831,-3.681 7.361,-11.891 5.38,-16.705 -1.977,-4.805 -3.275,-13.01 -9.627,-13.876 -6.23,-0.849 -11.893,0.567 -16.99,3.115 -5.096,2.548 -5.663,3.397 -5.663,3.397 0,0 -4.247,0 -6.795,1.983 -2.549,1.982 -7.645,8.211 -6.23,13.591 1.416,5.38 4.814,5.946 4.814,5.946 0,0 -7.079,2.831 -2.549,9.911 4.531,7.078 14.158,9.626 18.689,9.626 C -7.362,4.813 0,0 0,0 Z" /></g><g
           transform="translate(100.082,371.3271)"
           id="g532"><path
             id="path534"
             style="fill:none;stroke:#1a2e35;stroke-width:1;stroke-linecap:round;stroke-linejoin:round;stroke-miterlimit:10;stroke-dasharray:none;stroke-opacity:1"
             d="M 0,0 C 0,0 0.566,-1.133 2.548,-2.549 4.53,-3.964 7.362,-3.115 6.512,-5.663 5.663,-8.211 3.681,-9.061 1.982,-8.778" /></g><g
           transform="translate(106.8774,359.4346)"
           id="g536"><path
             id="path538"
             style="fill:none;stroke:#1a2e35;stroke-width:1;stroke-linecap:round;stroke-linejoin:round;stroke-miterlimit:10;stroke-dasharray:none;stroke-opacity:1"
             d="m 0,0 c 0,0 -5.38,-3.115 -9.061,-2.832 -3.681,0.284 -5.379,1.699 -5.379,1.699" /></g><g
           transform="translate(94.9854,356.603)"
           id="g540"><path
             id="path542"
             style="fill:#1a2e35;fill-opacity:1;fill-rule:nonzero;stroke:none"
             d="M 0,0 C 0,0 1.982,-7.079 4.813,-4.813 7.645,-2.548 8.211,1.132 8.211,1.132 8.211,1.132 3.964,-0.566 0,0" /></g><g
           transform="translate(94.9854,356.603)"
           id="g544"><path
             id="path546"
             style="fill:none;stroke:#1a2e35;stroke-width:1;stroke-linecap:round;stroke-linejoin:round;stroke-miterlimit:10;stroke-dasharray:none;stroke-opacity:1"
             d="M 0,0 C 0,0 1.982,-7.079 4.813,-4.813 7.645,-2.548 8.211,1.132 8.211,1.132 8.211,1.132 3.964,-0.566 0,0 Z" /></g><g
           transform="translate(94.7061,368.8735)"
           id="g548"><path
             id="path550"
             style="fill:#1a2e35;fill-opacity:1;fill-rule:nonzero;stroke:none"
             d="m 0,0 c 0.627,-0.984 0.647,-2.093 0.044,-2.478 -0.603,-0.384 -1.6,0.102 -2.227,1.086 C -2.811,-0.408 -2.83,0.701 -2.228,1.085 -1.625,1.47 -0.627,0.984 0,0" /></g><g
           transform="translate(103.7476,373.1479)"
           id="g552"><path
             id="path554"
             style="fill:#1a2e35;fill-opacity:1;fill-rule:nonzero;stroke:none"
             d="m 0,0 c 0.627,-0.984 0.647,-2.093 0.044,-2.478 -0.603,-0.384 -1.6,0.102 -2.227,1.086 C -2.811,-0.408 -2.83,0.701 -2.227,1.085 -1.624,1.47 -0.627,0.983 0,0" /></g><g
           transform="translate(88.7729,369.7227)"
           id="g556"><path
             id="path558"
             style="fill:none;stroke:#1a2e35;stroke-width:1;stroke-linecap:round;stroke-linejoin:round;stroke-miterlimit:10;stroke-dasharray:none;stroke-opacity:1"
             d="M 0,0 C 0,0 0.822,3.781 3.781,4.274" /></g><g
           transform="translate(98.4722,375.6406)"
           id="g560"><path
             id="path562"
             style="fill:none;stroke:#1a2e35;stroke-width:1;stroke-linecap:round;stroke-linejoin:round;stroke-miterlimit:10;stroke-dasharray:none;stroke-opacity:1"
             d="M 0,0 C 0,0 1.644,3.124 4.274,1.809" /></g><g
           transform="translate(74.3149,371.8931)"
           id="g564"><path
             id="path566"
             style="fill:#1a2e35;fill-opacity:1;fill-rule:nonzero;stroke:none"
             d="m 0,0 c 0,0 18.405,0 19.821,3.115 1.415,3.114 -2.832,5.38 -2.832,5.38 0,0 15.857,-0.567 17.556,4.247 1.699,4.814 -5.663,6.796 -7.929,6.796 h -3.397 c 0,0 -0.85,7.079 -9.061,5.379 C 5.946,23.219 -9.91,12.459 -11.893,6.229 -13.875,0 -18.405,-1.982 -15.007,-9.344 c 3.398,-7.362 12.742,-13.308 12.742,-13.308 0,0 -1.416,5.38 1.415,5.663 2.832,0.283 7.646,-1.699 8.495,-1.699 0.85,0 3.398,2.265 1.982,3.681 -1.416,1.416 -2.831,2.265 -3.114,3.115 -0.284,0.849 1.415,3.681 0.283,6.229 C 5.663,-3.115 0,0 0,0" /></g><g
           transform="translate(74.3149,371.8931)"
           id="g568"><path
             id="path570"
             style="fill:none;stroke:#1a2e35;stroke-width:1;stroke-linecap:round;stroke-linejoin:round;stroke-miterlimit:10;stroke-dasharray:none;stroke-opacity:1"
             d="m 0,0 c 0,0 18.405,0 19.821,3.115 1.415,3.114 -2.832,5.38 -2.832,5.38 0,0 15.857,-0.567 17.556,4.247 1.699,4.814 -5.663,6.796 -7.929,6.796 h -3.397 c 0,0 -0.85,7.079 -9.061,5.379 C 5.946,23.219 -9.91,12.459 -11.893,6.229 -13.875,0 -18.405,-1.982 -15.007,-9.344 c 3.398,-7.362 12.742,-13.308 12.742,-13.308 0,0 -1.416,5.38 1.415,5.663 2.832,0.283 7.646,-1.699 8.495,-1.699 0.85,0 3.398,2.265 1.982,3.681 -1.416,1.416 -2.831,2.265 -3.114,3.115 -0.284,0.849 1.415,3.681 0.283,6.229 C 5.663,-3.115 0,0 0,0 Z" /></g><g
           transform="translate(90.0557,338.3027)"
           id="g572"><path
             id="path574"
             style="fill:#5ae4a7;fill-opacity:1;fill-rule:nonzero;stroke:none"
             d="m 0,0 -6.561,-4.361 c -1.062,-0.706 -2.496,-0.417 -3.202,0.645 l -12.93,19.454 c -0.706,1.062 -0.417,2.496 0.645,3.202 l 6.561,4.361 c 1.062,0.706 2.496,0.417 3.201,-0.645 L 0.645,3.201 C 1.351,2.139 1.062,0.706 0,0" /></g><g
           transform="translate(90.0557,338.3027)"
           id="g576"><path
             id="path578"
             style="fill:none;stroke:#1a2e35;stroke-width:1;stroke-linecap:butt;stroke-linejoin:miter;stroke-miterlimit:10;stroke-dasharray:none;stroke-opacity:1"
             d="m 0,0 -6.561,-4.361 c -1.062,-0.706 -2.496,-0.417 -3.202,0.645 l -12.93,19.454 c -0.706,1.062 -0.417,2.496 0.645,3.202 l 6.561,4.361 c 1.062,0.706 2.496,0.417 3.201,-0.645 L 0.645,3.201 C 1.351,2.139 1.062,0.706 0,0 Z" /></g><g
           transform="translate(70.918,337.8867)"
           id="g580"><path
             id="path582"
             style="fill:#ffffff;fill-opacity:1;fill-rule:nonzero;stroke:none"
             d="m 0,0 c 0,0 -1.306,3.357 -2.611,5.782 -1.306,2.425 -1.306,3.544 -0.373,3.544 0.932,0 3.357,-1.119 4.103,-3.917 0.746,-2.798 0.373,-6.155 0.373,-6.155 z" /></g><g
           transform="translate(70.918,337.8867)"
           id="g584"><path
             id="path586"
             style="fill:none;stroke:#1a2e35;stroke-width:1;stroke-linecap:butt;stroke-linejoin:miter;stroke-miterlimit:10;stroke-dasharray:none;stroke-opacity:1"
             d="m 0,0 c 0,0 -1.306,3.357 -2.611,5.782 -1.306,2.425 -1.306,3.544 -0.373,3.544 0.932,0 3.357,-1.119 4.103,-3.917 0.746,-2.798 0.373,-6.155 0.373,-6.155 z" /></g><g
           transform="translate(82.1094,325.0166)"
           id="g588"><path
             id="path590"
             style="fill:#ffffff;fill-opacity:1;fill-rule:nonzero;stroke:none"
             d="m 0,0 c 0,0 -10.632,10.632 -11.005,11.564 -0.321,0.802 0.048,13.045 0.158,16.465 0.016,0.515 0.39,0.948 0.897,1.04 0.635,0.116 1.23,-0.341 1.285,-0.984 l 0.831,-9.806 2.437,12.36 c 0.101,0.513 0.551,0.883 1.075,0.883 0.626,0 1.125,-0.524 1.093,-1.149 l -0.688,-13.772 3.066,11.754 c 0.161,0.614 0.791,0.979 1.404,0.812 C 1.094,29.02 1.447,28.5 1.386,27.943 L 0,15.295 2.611,13.057 v 4.476 l 3.125,5.262 c 0.236,0.399 0.74,0.547 1.154,0.34 0.423,-0.212 0.605,-0.72 0.411,-1.152 L 5.223,17.347 c 0,0 4.103,-16.787 4.29,-17.347 0.186,-0.56 -0.746,-3.544 -1.306,-4.663 -0.56,-1.119 -25.554,-54.091 -27.046,-56.143 -1.492,-2.052 -11.564,-5.223 -16.041,-0.373 -4.476,4.849 -2.984,9.699 -0.559,15.295 C -33.015,-40.289 0,0 0,0" /></g><g
           transform="translate(82.1094,325.0166)"
           id="g592"><path
             id="path594"
             style="fill:none;stroke:#1a2e35;stroke-width:1;stroke-linecap:butt;stroke-linejoin:miter;stroke-miterlimit:10;stroke-dasharray:none;stroke-opacity:1"
             d="m 0,0 c 0,0 -10.632,10.632 -11.005,11.564 -0.321,0.802 0.048,13.045 0.158,16.465 0.016,0.515 0.39,0.948 0.897,1.04 0.635,0.116 1.23,-0.341 1.285,-0.984 l 0.831,-9.806 2.437,12.36 c 0.101,0.513 0.551,0.883 1.075,0.883 0.626,0 1.125,-0.524 1.093,-1.149 l -0.688,-13.772 3.066,11.754 c 0.161,0.614 0.791,0.979 1.404,0.812 C 1.094,29.02 1.447,28.5 1.386,27.943 L 0,15.295 2.611,13.057 v 4.476 l 3.125,5.262 c 0.236,0.399 0.74,0.547 1.154,0.34 0.423,-0.212 0.605,-0.72 0.411,-1.152 L 5.223,17.347 c 0,0 4.103,-16.787 4.29,-17.347 0.186,-0.56 -0.746,-3.544 -1.306,-4.663 -0.56,-1.119 -25.554,-54.091 -27.046,-56.143 -1.492,-2.052 -11.564,-5.223 -16.041,-0.373 -4.476,4.849 -2.984,9.699 -0.559,15.295 C -33.015,-40.289 0,0 0,0 Z" /></g><g
           transform="translate(85.8447,211.543)"
           id="g596"><path
             id="path598"
             style="fill:none;stroke:#818181;stroke-width:1;stroke-linecap:round;stroke-linejoin:round;stroke-miterlimit:10;stroke-dasharray:none;stroke-opacity:1"
             d="M 0,0 14.151,-8.192" /></g><g
           transform="translate(143.1943,217.1289)"
           id="g600"><path
             id="path602"
             style="fill:none;stroke:#818181;stroke-width:1;stroke-linecap:round;stroke-linejoin:round;stroke-miterlimit:10;stroke-dasharray:none;stroke-opacity:1"
             d="M 0,0 -8.565,-11.172" /></g></g></g><g
       transform="translate(30,34)"
       id="g604"><path
         id="path606"
         style="fill:none;stroke:#1a2e35;stroke-width:1;stroke-linecap:round;stroke-linejoin:round;stroke-miterlimit:10;stroke-dasharray:none;stroke-opacity:1"
         d="M 0,0 H 447" /></g></g></svg>